<svg version="1.1" xmlns="http://www.w3.org/2000/svg" viewBox="0 0 627.1610717773438 672.4513244628906" width="1254.3221435546875" height="1344.9026489257812">
  <!-- svg-source:excalidraw -->
  
  <defs>
    <style>
      @font-face {
        font-family: "Virgil";
        src: url("https://excalidraw.com/Virgil.woff2");
      }
      @font-face {
        font-family: "Cascadia";
        src: url("https://excalidraw.com/Cascadia.woff2");
      }
    </style>
  </defs>
  <rect x="0" y="0" width="627.1610717773438" height="672.4513244628906" fill="#ffffff"></rect><g stroke-linecap="round" transform="translate(130.12115478515625 75.80343627929688) rotate(0 58.5 27.5)"><path d="M68.9 0.98 C78.9 1.69, 91.65 4.59, 99.25 7.88 C106.84 11.18, 111.91 16.01, 114.46 20.77 C117.02 25.53, 117.74 31.68, 114.59 36.43 C111.44 41.19, 104.05 46.13, 95.55 49.3 C87.05 52.46, 74.2 54.94, 63.6 55.42 C53 55.91, 41.17 54.54, 31.95 52.2 C22.72 49.87, 13.59 45.55, 8.25 41.41 C2.92 37.26, -0.41 32.2, -0.08 27.32 C0.25 22.44, 4.2 16.2, 10.25 12.11 C16.29 8.02, 24.87 4.61, 36.19 2.77 C47.5 0.92, 70.13 0.85, 78.16 1.04 C86.19 1.23, 84.65 3.24, 84.36 3.9 M71.79 0.45 C81.99 0.87, 94.54 4.55, 101.69 8.14 C108.85 11.74, 112.63 17.22, 114.72 22.04 C116.82 26.86, 117.92 32.51, 114.26 37.07 C110.59 41.63, 101.45 46.28, 92.75 49.4 C84.06 52.52, 72.85 55.25, 62.1 55.82 C51.34 56.39, 37.47 55.29, 28.21 52.81 C18.96 50.32, 11 45.51, 6.57 40.91 C2.14 36.3, 0.86 30.01, 1.62 25.19 C2.39 20.37, 5.04 15.82, 11.15 11.98 C17.27 8.14, 28.09 4.23, 38.31 2.15 C48.53 0.08, 66.73 -0.21, 72.48 -0.46 C78.23 -0.7, 73 -0.01, 72.8 0.68" stroke="#000000" stroke-width="1" fill="none"></path></g><g transform="translate(135.12115478515625 93.30343627929688) rotate(0 53.5 10)"><text x="53.5" y="14" font-family="Virgil, Segoe UI Emoji" font-size="16px" fill="#000000" text-anchor="middle" style="white-space: pre;" direction="ltr">Scalability</text></g><g transform="translate(273.2166748046875 87.10325751247183) rotate(0 91 13)"><text x="0" y="11" font-family="Cascadia, Segoe UI Emoji" font-size="11.122088971195444px" fill="#000000" text-anchor="start" style="white-space: pre;" direction="ltr">Systems ability to cope with</text><text x="0" y="24" font-family="Cascadia, Segoe UI Emoji" font-size="11.122088971195444px" fill="#000000" text-anchor="start" style="white-space: pre;" direction="ltr">increased load.</text></g><g transform="translate(112.96856689453125 10) rotate(0 144 19.5)"><text x="0" y="11" font-family="Cascadia, Segoe UI Emoji" font-size="11.122088971195444px" fill="#000000" text-anchor="start" style="white-space: pre;" direction="ltr">It is not one-dimensional.</text><text x="0" y="24" font-family="Cascadia, Segoe UI Emoji" font-size="11.122088971195444px" fill="#000000" text-anchor="start" style="white-space: pre;" direction="ltr">If the system grows in a particular way,</text><text x="0" y="37" font-family="Cascadia, Segoe UI Emoji" font-size="11.122088971195444px" fill="#000000" text-anchor="start" style="white-space: pre;" direction="ltr">what are our options for coping with growth?</text></g><g stroke-linecap="round" transform="translate(300.92352294921875 169.97564697265625) rotate(0 55 27.5)"><path d="M80.06 3.51 C88.87 5.35, 97.49 8.92, 102.47 13.23 C107.45 17.55, 110.29 24.46, 109.96 29.41 C109.63 34.35, 106.22 39, 100.49 42.88 C94.76 46.77, 85.05 50.83, 75.58 52.7 C66.1 54.57, 53.57 54.87, 43.65 54.1 C33.74 53.33, 22.94 51.41, 16.08 48.07 C9.22 44.72, 4.77 39.09, 2.49 34.04 C0.21 28.99, -0.53 22.36, 2.41 17.77 C5.36 13.18, 12.32 9.46, 20.16 6.51 C28 3.55, 38.04 -0.03, 49.44 0.02 C60.83 0.07, 80.76 5.17, 88.55 6.8 C96.34 8.42, 96.67 9.56, 96.18 9.78 M72.66 0.45 C81.42 2.02, 91.47 8.42, 97.87 12.35 C104.27 16.29, 109.89 19.32, 111.04 24.07 C112.18 28.82, 109.78 36.34, 104.75 40.88 C99.71 45.42, 89.86 48.73, 80.83 51.31 C71.81 53.89, 60.49 56.54, 50.58 56.37 C40.66 56.2, 29.21 53.6, 21.34 50.27 C13.47 46.95, 6.64 41.22, 3.37 36.45 C0.1 31.68, -0.26 26.16, 1.71 21.66 C3.67 17.15, 8.29 12.67, 15.15 9.39 C22.01 6.12, 32.94 3.08, 42.86 2 C52.78 0.93, 69.75 2.95, 74.69 2.94 C79.63 2.94, 73 1.73, 72.51 1.97" stroke="#000000" stroke-width="1" fill="none"></path></g><g transform="translate(305.92352294921875 177.47564697265625) rotate(0 50 20)"><text x="50" y="14" font-family="Virgil, Segoe UI Emoji" font-size="16px" fill="#000000" text-anchor="middle" style="white-space: pre;" direction="ltr">Describing </text><text x="50" y="34" font-family="Virgil, Segoe UI Emoji" font-size="16px" fill="#000000" text-anchor="middle" style="white-space: pre;" direction="ltr">Load</text></g><g stroke-linecap="round" transform="translate(52.526153564453125 165.8792724609375) rotate(0 63 30.5)"><path d="M85.5 1.34 C94.86 2.47, 103.99 6.17, 110.46 10.21 C116.94 14.25, 122.33 20.3, 124.34 25.6 C126.35 30.89, 126.08 37.35, 122.51 41.99 C118.94 46.62, 110.95 50.22, 102.92 53.42 C94.89 56.61, 84.59 60.19, 74.32 61.16 C64.06 62.12, 51.26 61.18, 41.33 59.21 C31.41 57.24, 21.37 53.28, 14.77 49.33 C8.18 45.39, 3.52 40.43, 1.76 35.52 C0.01 30.62, 0.8 24.78, 4.25 19.9 C7.7 15.02, 14.58 9.65, 22.46 6.25 C30.34 2.85, 40.49 0.21, 51.54 -0.52 C62.58 -1.25, 82.23 0.98, 88.73 1.86 C95.22 2.74, 90.89 4.13, 90.5 4.74 M37.4 2.93 C46.4 0.61, 60.1 -0.58, 70.26 -0.19 C80.42 0.21, 90.01 2.18, 98.36 5.32 C106.7 8.45, 115.58 13.93, 120.32 18.62 C125.07 23.3, 127.73 28.44, 126.8 33.44 C125.88 38.43, 121.11 44.53, 114.78 48.56 C108.44 52.6, 98.25 55.76, 88.79 57.64 C79.32 59.52, 68.43 60.23, 57.99 59.85 C47.54 59.47, 34.94 58.15, 26.14 55.36 C17.34 52.56, 9.73 47.8, 5.19 43.07 C0.65 38.33, -2.1 32, -1.11 26.95 C-0.11 21.91, 4.72 17.01, 11.17 12.81 C17.61 8.62, 33.05 3.57, 37.57 1.8 C42.09 0.03, 38.07 1.76, 38.3 2.18" stroke="#000000" stroke-width="1" fill="none"></path></g><g transform="translate(57.526153564453125 176.3792724609375) rotate(0 58 20)"><text x="58" y="14" font-family="Virgil, Segoe UI Emoji" font-size="16px" fill="#000000" text-anchor="middle" style="white-space: pre;" direction="ltr">Describing </text><text x="58" y="34" font-family="Virgil, Segoe UI Emoji" font-size="16px" fill="#000000" text-anchor="middle" style="white-space: pre;" direction="ltr">Performance</text></g><g stroke-linecap="round" transform="translate(349.4644470214844 245.27813720703125) rotate(0 55 27.5)"><path d="M69.06 0.19 C78.3 0.84, 87.94 4.45, 94.74 8.15 C101.55 11.84, 108.08 17.37, 109.88 22.36 C111.68 27.35, 109.45 33.31, 105.53 38.08 C101.61 42.84, 94.49 48.11, 86.37 50.95 C78.25 53.79, 66.64 55.11, 56.82 55.11 C47.01 55.12, 35.85 53.44, 27.48 50.96 C19.12 48.47, 11.27 44.69, 6.62 40.2 C1.97 35.71, -1.5 28.98, -0.43 24.04 C0.65 19.1, 6.81 14.28, 13.07 10.58 C19.33 6.87, 27.33 3.37, 37.13 1.83 C46.93 0.29, 65.73 1.13, 71.87 1.34 C78.02 1.55, 74.19 2.64, 73.99 3.08 M69.1 2.24 C78.49 3.19, 89.52 6.59, 96.28 9.82 C103.04 13.04, 108.32 17.03, 109.65 21.6 C110.99 26.17, 108.28 32.22, 104.28 37.22 C100.28 42.23, 93.83 48.79, 85.63 51.61 C77.42 54.44, 64.88 54.17, 55.06 54.19 C45.23 54.22, 35.15 54.19, 26.68 51.75 C18.21 49.32, 8.69 43.92, 4.23 39.58 C-0.23 35.24, -1.4 30.73, -0.09 25.71 C1.22 20.69, 5.8 13.5, 12.08 9.47 C18.37 5.44, 28.31 2.75, 37.63 1.53 C46.94 0.32, 62.79 2.01, 67.97 2.19 C73.15 2.38, 68.87 2.39, 68.73 2.63" stroke="#000000" stroke-width="1" fill="none"></path></g><g transform="translate(354.4644470214844 252.77813720703125) rotate(0 50 20)"><text x="50" y="14" font-family="Virgil, Segoe UI Emoji" font-size="16px" fill="#000000" text-anchor="middle" style="white-space: pre;" direction="ltr">Load </text><text x="50" y="34" font-family="Virgil, Segoe UI Emoji" font-size="16px" fill="#000000" text-anchor="middle" style="white-space: pre;" direction="ltr">parameters</text></g><g stroke-linecap="round" transform="translate(485.271240234375 295.3068084716797) rotate(0 55 27.5)"><path d="M61.38 -0.39 C70.97 0.01, 81.9 3.83, 89.4 6.95 C96.89 10.07, 103.13 13.7, 106.38 18.32 C109.63 22.93, 111.06 29.8, 108.89 34.64 C106.71 39.49, 100.72 44.04, 93.34 47.39 C85.96 50.73, 74.35 53.71, 64.58 54.7 C54.82 55.68, 43.69 55.12, 34.72 53.29 C25.75 51.46, 16.56 47.8, 10.77 43.71 C4.97 39.62, 0.46 33.87, -0.04 28.75 C-0.54 23.63, 2.88 17.47, 7.79 13 C12.7 8.53, 20.01 3.89, 29.44 1.93 C38.87 -0.03, 57.94 1.18, 64.37 1.22 C70.79 1.26, 68.07 1.91, 68.01 2.19 M32.53 3.32 C40.86 1.11, 52.68 0.71, 62.34 1.1 C72 1.5, 83.04 2.28, 90.51 5.71 C97.98 9.14, 104.09 16.65, 107.15 21.68 C110.22 26.71, 111.87 31.24, 108.89 35.89 C105.92 40.54, 97.33 46.63, 89.31 49.57 C81.29 52.51, 70.24 53.27, 60.77 53.51 C51.3 53.75, 41.19 53.07, 32.48 51.01 C23.78 48.96, 13.84 44.96, 8.53 41.17 C3.21 37.38, 0.6 33.07, 0.59 28.27 C0.58 23.48, 3.22 16.52, 8.48 12.43 C13.74 8.33, 27.87 5.32, 32.15 3.69 C36.44 2.07, 33.71 2.66, 34.2 2.68" stroke="#000000" stroke-width="1" fill="none"></path></g><g transform="translate(490.271240234375 312.8068084716797) rotate(0 50 10)"><text x="50" y="14" font-family="Virgil, Segoe UI Emoji" font-size="16px" fill="#000000" text-anchor="middle" style="white-space: pre;" direction="ltr">Req/Sec</text></g><g stroke-linecap="round" transform="translate(507.16107177734375 205.78713989257812) rotate(0 55 27.5)"><path d="M75.54 1.93 C84.54 3.3, 95.03 7.85, 100.78 11.86 C106.52 15.87, 109.85 21.03, 110 26.01 C110.14 30.99, 106.72 37.32, 101.64 41.71 C96.57 46.11, 88.38 50.08, 79.54 52.39 C70.7 54.71, 58.36 56.22, 48.58 55.61 C38.79 55.01, 28.44 52.05, 20.84 48.74 C13.23 45.42, 6.15 40.33, 2.95 35.72 C-0.24 31.12, -0.92 25.85, 1.67 21.11 C4.27 16.37, 11.11 10.89, 18.52 7.29 C25.93 3.68, 35.25 -0.13, 46.14 -0.53 C57.04 -0.94, 76.73 3.79, 83.87 4.88 C91.01 5.98, 89.57 5.64, 88.98 6.03 M32.26 3.65 C40.14 0.98, 51.93 -0.53, 61.62 -0.22 C71.31 0.09, 82.5 2.39, 90.41 5.51 C98.33 8.63, 106.4 13.48, 109.09 18.49 C111.78 23.5, 109.61 30.53, 106.56 35.58 C103.52 40.62, 98.12 45.79, 90.82 48.75 C83.52 51.71, 72.33 52.62, 62.77 53.34 C53.21 54.05, 42.25 54.72, 33.46 53.02 C24.67 51.32, 15.7 47.11, 10.06 43.12 C4.42 39.13, 0.04 33.92, -0.37 29.08 C-0.79 24.25, 2.24 18.73, 7.56 14.09 C12.88 9.45, 27.29 3.33, 31.54 1.25 C35.79 -0.82, 32.52 0.83, 33.05 1.63" stroke="#000000" stroke-width="1" fill="none"></path></g><g transform="translate(512.1610717773438 223.28713989257812) rotate(0 50 10)"><text x="50" y="14" font-family="Virgil, Segoe UI Emoji" font-size="16px" fill="#000000" text-anchor="middle" style="white-space: pre;" direction="ltr">Active users</text></g><g stroke-linecap="round" transform="translate(364.5430603027344 333.0321350097656) rotate(0 55 27.5)"><path d="M75.23 1.24 C84.09 2.51, 93.38 6.97, 99.21 11.02 C105.03 15.07, 109.51 20.32, 110.19 25.54 C110.88 30.76, 108.5 37.75, 103.33 42.33 C98.16 46.9, 88.16 50.83, 79.16 52.97 C70.16 55.12, 59.06 55.95, 49.31 55.2 C39.56 54.46, 28.43 51.54, 20.66 48.51 C12.89 45.47, 5.96 41.51, 2.69 36.98 C-0.58 32.45, -1.53 26.14, 1.05 21.33 C3.63 16.51, 10.75 11.53, 18.18 8.11 C25.62 4.68, 35.5 1.53, 45.65 0.76 C55.79 -0.01, 73.05 2.94, 79.05 3.47 C85.04 4.01, 82.06 3.8, 81.61 3.98 M42.92 0.53 C51.9 -1.2, 63.72 -0.78, 72.82 0.82 C81.92 2.42, 91.53 5.86, 97.51 10.14 C103.49 14.42, 107.71 21.28, 108.7 26.5 C109.69 31.72, 107.72 37.33, 103.43 41.48 C99.15 45.63, 91.37 48.9, 82.99 51.39 C74.62 53.87, 63.19 56.57, 53.2 56.4 C43.21 56.23, 31.49 53.63, 23.04 50.38 C14.59 47.12, 6.26 41.39, 2.49 36.86 C-1.28 32.33, -1.59 28.01, 0.41 23.21 C2.41 18.4, 7.26 11.69, 14.48 8.03 C21.71 4.38, 39.13 2.25, 43.76 1.28 C48.4 0.3, 42.53 1.99, 42.28 2.2" stroke="#000000" stroke-width="1" fill="none"></path></g><g transform="translate(369.5430603027344 340.5321350097656) rotate(0 50 20)"><text x="50" y="14" font-family="Virgil, Segoe UI Emoji" font-size="16px" fill="#000000" text-anchor="middle" style="white-space: pre;" direction="ltr">Amount of </text><text x="50" y="34" font-family="Virgil, Segoe UI Emoji" font-size="16px" fill="#000000" text-anchor="middle" style="white-space: pre;" direction="ltr">data/size</text></g><g transform="translate(280.2630310058594 134.62213134765625) rotate(0 105 6.5)"><text x="0" y="11" font-family="Cascadia, Segoe UI Emoji" font-size="11.122088971195444px" fill="#000000" text-anchor="start" style="white-space: pre;" direction="ltr">What happens when load increases</text></g><g stroke-linecap="round" transform="translate(44.14984130859375 270.0472717285156) rotate(0 68 30.5)"><path d="M45.11 1.95 C55.04 -0.12, 69.05 -0.28, 80.42 0.49 C91.79 1.27, 104.72 3.4, 113.33 6.59 C121.93 9.79, 128.6 14.84, 132.03 19.66 C135.46 24.48, 136.02 30.47, 133.91 35.49 C131.81 40.52, 126.62 45.74, 119.39 49.79 C112.15 53.84, 101.35 58.12, 90.52 59.82 C79.68 61.53, 65.56 61.14, 54.37 60.04 C43.17 58.94, 31.88 56.38, 23.32 53.25 C14.77 50.12, 6.83 45.98, 3.03 41.27 C-0.77 36.55, -1.85 30.19, 0.54 24.98 C2.92 19.77, 7.52 14.06, 17.34 9.99 C27.15 5.91, 49.89 2.12, 59.43 0.56 C68.96 -1.01, 74.31 0, 74.55 0.58 M63.65 1.12 C74.24 0.67, 88.25 2.67, 98.49 4.58 C108.72 6.49, 118.88 8.65, 125.07 12.59 C131.27 16.53, 135.14 23.07, 135.66 28.21 C136.18 33.35, 133.32 38.82, 128.18 43.46 C123.05 48.1, 114.14 52.93, 104.85 56.04 C95.57 59.16, 84.02 61.84, 72.48 62.14 C60.94 62.44, 46.04 60.5, 35.61 57.85 C25.19 55.21, 15.93 50.6, 9.95 46.26 C3.97 41.91, -0.06 36.63, -0.26 31.77 C-0.47 26.9, 3.47 21.42, 8.74 17.07 C14 12.72, 21.8 8.27, 31.32 5.67 C40.83 3.06, 60.24 2.44, 65.82 1.45 C71.4 0.46, 64.97 -0.43, 64.79 -0.27" stroke="#000000" stroke-width="1" fill="none"></path></g><g transform="translate(49.14984130859375 280.5472717285156) rotate(0 63 20)"><text x="63" y="14" font-family="Virgil, Segoe UI Emoji" font-size="16px" fill="#000000" text-anchor="middle" style="white-space: pre;" direction="ltr">Latency and </text><text x="63" y="34" font-family="Virgil, Segoe UI Emoji" font-size="16px" fill="#000000" text-anchor="middle" style="white-space: pre;" direction="ltr">Response time </text></g><g stroke-linecap="round" transform="translate(59.660369873046875 361.0103759765625) rotate(0 55 27.5)"><path d="M48.93 -0.28 C57.89 -1.38, 69.23 0.05, 77.95 2.37 C86.66 4.7, 95.89 9.52, 101.19 13.66 C106.49 17.79, 109.75 22.32, 109.75 27.2 C109.74 32.08, 106.64 38.63, 101.15 42.94 C95.65 47.24, 86.05 51.21, 76.76 53.01 C67.48 54.81, 55.29 54.73, 45.43 53.73 C35.57 52.73, 24.71 50.13, 17.62 46.99 C10.52 43.86, 5.55 39.48, 2.87 34.92 C0.2 30.35, -1.25 24.38, 1.59 19.6 C4.43 14.82, 11.08 9.55, 19.91 6.25 C28.74 2.95, 47.91 0.65, 54.57 -0.2 C61.24 -1.05, 59.77 0.69, 59.89 1.15 M77.92 3.44 C86.84 5.33, 97 10.02, 102.14 14.08 C107.29 18.15, 109.21 23.12, 108.77 27.84 C108.34 32.56, 104.97 38.11, 99.52 42.4 C94.08 46.69, 85.03 51.54, 76.1 53.58 C67.18 55.62, 55.72 55.71, 45.96 54.66 C36.2 53.6, 25.06 50.3, 17.54 47.25 C10.02 44.19, 3.39 41.13, 0.85 36.33 C-1.7 31.53, -1.02 23.63, 2.27 18.42 C5.56 13.22, 13.03 7.96, 20.6 5.12 C28.17 2.27, 37.81 1.88, 47.7 1.35 C57.58 0.82, 75.04 1.66, 79.9 1.93 C84.77 2.21, 77.43 2.44, 76.9 3" stroke="#000000" stroke-width="1" fill="none"></path></g><g transform="translate(64.66036987304688 378.5103759765625) rotate(0 50 10)"><text x="50" y="14" font-family="Virgil, Segoe UI Emoji" font-size="16px" fill="#000000" text-anchor="middle" style="white-space: pre;" direction="ltr">Percentiles</text></g><g transform="translate(104.32809448242188 451.84197998046875) rotate(0 146.5 26)"><text x="0" y="11" font-family="Cascadia, Segoe UI Emoji" font-size="11.122088971195444px" fill="#000000" text-anchor="start" style="white-space: pre;" direction="ltr">* Mean is not a good metrics.</text><text x="0" y="24" font-family="Cascadia, Segoe UI Emoji" font-size="11.122088971195444px" fill="#000000" text-anchor="start" style="white-space: pre;" direction="ltr">* Does not tell you how many users experience</text><text x="0" y="37" font-family="Cascadia, Segoe UI Emoji" font-size="11.122088971195444px" fill="#000000" text-anchor="start" style="white-space: pre;" direction="ltr">that delay.</text><text x="0" y="50" font-family="Cascadia, Segoe UI Emoji" font-size="11.122088971195444px" fill="#000000" text-anchor="start" style="white-space: pre;" direction="ltr">* Percentiles work better</text></g><g stroke-linecap="round" transform="translate(10 516.0584106445312) rotate(0 55 27.5)"><path d="M77.53 2.03 C86.43 3.7, 95.38 7.98, 100.74 12.08 C106.1 16.17, 109.42 21.46, 109.67 26.6 C109.92 31.74, 107.48 38.61, 102.24 42.94 C96.99 47.27, 87.42 50.55, 78.19 52.57 C68.95 54.6, 56.65 55.92, 46.81 55.1 C36.98 54.28, 26.72 50.9, 19.17 47.65 C11.63 44.4, 4.55 40.15, 1.55 35.6 C-1.45 31.05, -1.75 25.21, 1.17 20.37 C4.09 15.52, 11.5 9.8, 19.08 6.51 C26.66 3.23, 34.81 0.68, 46.64 0.65 C58.47 0.62, 81.46 4.4, 90.03 6.31 C98.61 8.22, 98.71 11.7, 98.1 12.14 M40.94 1.85 C49.79 0.3, 63.15 1.38, 72.8 2.77 C82.45 4.15, 92.84 6.33, 98.84 10.15 C104.85 13.97, 107.98 20.84, 108.82 25.7 C109.66 30.55, 108.12 34.85, 103.88 39.27 C99.65 43.69, 91.7 49.48, 83.43 52.22 C75.17 54.96, 64.32 55.95, 54.28 55.71 C44.23 55.47, 31.64 53.81, 23.16 50.78 C14.69 47.76, 7.17 42.42, 3.43 37.55 C-0.32 32.68, -1.17 26.58, 0.67 21.58 C2.5 16.58, 7.63 10.89, 14.43 7.54 C21.24 4.18, 37.03 2.49, 41.49 1.46 C45.95 0.42, 40.92 0.73, 41.18 1.32" stroke="#000000" stroke-width="1" fill="none"></path></g><g transform="translate(15 523.5584106445312) rotate(0 50 20)"><text x="50" y="14" font-family="Virgil, Segoe UI Emoji" font-size="16px" fill="#000000" text-anchor="middle" style="white-space: pre;" direction="ltr">Finding </text><text x="50" y="34" font-family="Virgil, Segoe UI Emoji" font-size="16px" fill="#000000" text-anchor="middle" style="white-space: pre;" direction="ltr">outliers</text></g><g stroke-linecap="round" transform="translate(17.52337646484375 598.4513244628906) rotate(0 81.5 32)"><path d="M83.52 0.98 C95.47 0.62, 110.42 2.01, 121.43 4.12 C132.45 6.24, 142.61 9.71, 149.62 13.69 C156.63 17.66, 162.06 22.97, 163.47 27.98 C164.87 32.99, 163.06 38.85, 158.04 43.75 C153.01 48.66, 143.24 53.99, 133.32 57.39 C123.39 60.79, 110.83 63.17, 98.5 64.14 C86.17 65.11, 71.28 64.8, 59.34 63.2 C47.4 61.6, 36.1 57.85, 26.87 54.52 C17.64 51.2, 8.42 47.71, 3.94 43.24 C-0.54 38.77, -1.76 32.69, -0.01 27.69 C1.74 22.68, 6.93 17.19, 14.45 13.19 C21.98 9.2, 33.24 5.98, 45.14 3.71 C57.04 1.43, 78.72 0.18, 85.84 -0.47 C92.96 -1.12, 87.97 -0.64, 87.83 -0.19 M107.92 1.93 C119.6 3.38, 132.95 7.16, 141.44 10.92 C149.93 14.68, 155.62 19.73, 158.87 24.49 C162.12 29.24, 163.3 34.78, 160.95 39.47 C158.6 44.16, 153.18 48.82, 144.75 52.62 C136.32 56.41, 122.39 60.39, 110.38 62.26 C98.37 64.13, 85.04 64.67, 72.69 63.84 C60.33 63.01, 46.87 59.94, 36.26 57.27 C25.66 54.6, 14.92 52.08, 9.07 47.84 C3.22 43.59, 1.18 36.83, 1.17 31.79 C1.16 26.75, 3.61 22.06, 9.01 17.6 C14.4 13.14, 23.47 7.93, 33.52 5.01 C43.58 2.09, 56.64 0.85, 69.32 0.11 C81.99 -0.64, 102.85 0.03, 109.59 0.55 C116.33 1.06, 110.17 2.51, 109.77 3.19" stroke="#000000" stroke-width="1" fill="none"></path></g><g transform="translate(22.52337646484375 610.4513244628906) rotate(0 76.5 20)"><text x="76.5" y="14" font-family="Virgil, Segoe UI Emoji" font-size="16px" fill="#000000" text-anchor="middle" style="white-space: pre;" direction="ltr">95th, 99th, 99.9th</text><text x="76.5" y="34" font-family="Virgil, Segoe UI Emoji" font-size="16px" fill="#000000" text-anchor="middle" style="white-space: pre;" direction="ltr">percentiles</text></g><g transform="translate(138.627197265625 534.43505859375) rotate(0 75.5 6.5)"><text x="0" y="11" font-family="Cascadia, Segoe UI Emoji" font-size="11.122088971195444px" fill="#000000" text-anchor="start" style="white-space: pre;" direction="ltr">known as tail latencies</text></g><g transform="translate(92.27069091796875 428.42498779296875) rotate(0 88.5 6.5)"><text x="0" y="11" font-family="Cascadia, Segoe UI Emoji" font-size="11.122088971195444px" fill="#000000" text-anchor="start" style="white-space: pre;" direction="ltr">Often used in SLOs and SLAs</text></g><g stroke-linecap="round"><g transform="translate(185.49032592773438 143.08230590820312) rotate(0 -18.49901256407145 10.882732101529825)"><path d="M-0.91 -0.95 C-7.08 2.97, -31.89 18.92, -37.82 22.71 M0.82 1.17 C-4.89 4.81, -29.2 17.29, -35.48 20.93" stroke="#000000" stroke-width="1" fill="none"></path></g><g transform="translate(185.49032592773438 143.08230590820312) rotate(0 -18.49901256407145 10.882732101529825)"><path d="M-22.76 3.57 C-23.58 9.54, -28.45 14.1, -34.84 22.75 M-22.12 5.37 C-27.28 11.06, -32.97 18.13, -35.39 21.9" stroke="#000000" stroke-width="1" fill="none"></path></g><g transform="translate(185.49032592773438 143.08230590820312) rotate(0 -18.49901256407145 10.882732101529825)"><path d="M-15.71 16.54 C-18.1 19.41, -24.63 20.92, -34.84 22.75 M-15.07 18.34 C-22.92 18.97, -31.37 20.97, -35.39 21.9" stroke="#000000" stroke-width="1" fill="none"></path></g></g><g stroke-linecap="round"><g transform="translate(225.41830444335938 134.00088500976562) rotate(0 44.22978602353018 19.61717467137612)"><path d="M0.98 1.04 C15.52 7.25, 73.96 31.26, 88.43 37.56 M0.03 0.54 C14.4 6.86, 73.45 32.66, 87.97 38.69" stroke="#000000" stroke-width="1" fill="none"></path></g><g transform="translate(225.41830444335938 134.00088500976562) rotate(0 44.22978602353018 19.61717467137612)"><path d="M59.75 38.6 C68.65 37.97, 82.62 37.96, 88.71 39.11 M57.61 36.39 C66.93 36.44, 74.66 37.16, 88.15 39.33" stroke="#000000" stroke-width="1" fill="none"></path></g><g transform="translate(225.41830444335938 134.00088500976562) rotate(0 44.22978602353018 19.61717467137612)"><path d="M67.82 19.74 C73.56 26.66, 84.33 34.14, 88.71 39.11 M65.68 17.52 C72.58 23.14, 77.95 29.37, 88.15 39.33" stroke="#000000" stroke-width="1" fill="none"></path></g></g><g stroke-linecap="round"><g transform="translate(116.65350341796875 235.55551147460938) rotate(0 -0.02283373976592884 14.663907109969301)"><path d="M-0.89 0.6 C-0.95 5.57, 0.35 24.89, 0.54 29.46 M0.84 -0.13 C0.65 4.54, 0.36 22.89, 0.21 27.75" stroke="#000000" stroke-width="1" fill="none"></path></g><g transform="translate(116.65350341796875 235.55551147460938) rotate(0 -0.02283373976592884 14.663907109969301)"><path d="M-3.67 15.59 C-1.76 20.37, -1.74 24.41, 0.26 26.99 M-4.83 13.82 C-2.86 17.43, -1.85 22.2, 0.02 27.16" stroke="#000000" stroke-width="1" fill="none"></path></g><g transform="translate(116.65350341796875 235.55551147460938) rotate(0 -0.02283373976592884 14.663907109969301)"><path d="M6.14 15.81 C4.37 20.44, 0.71 24.39, 0.26 26.99 M4.98 14.04 C4.29 17.64, 2.66 22.35, 0.02 27.16" stroke="#000000" stroke-width="1" fill="none"></path></g></g><g stroke-linecap="round"><g transform="translate(351.0143127441406 236.11065673828125) rotate(0 7.351315162880383 7.274487332128928)"><path d="M0.16 -0.59 C2.56 1.85, 11.19 11.58, 13.52 14.17 M-1.21 1.71 C1.67 4.3, 13.47 12.73, 15.91 15.14" stroke="#000000" stroke-width="1" fill="none"></path></g><g transform="translate(351.0143127441406 236.11065673828125) rotate(0 7.351315162880383 7.274487332128928)"><path d="M5.59 11.16 C7.38 12.49, 10.31 13.94, 16.09 14.24 M5.99 11.49 C9.85 12.54, 13.65 13.89, 15.68 14.88" stroke="#000000" stroke-width="1" fill="none"></path></g><g transform="translate(351.0143127441406 236.11065673828125) rotate(0 7.351315162880383 7.274487332128928)"><path d="M10.11 5.66 C10.85 8.25, 12.75 10.95, 16.09 14.24 M10.5 5.99 C12.78 8.98, 14.96 12.3, 15.68 14.88" stroke="#000000" stroke-width="1" fill="none"></path></g></g><g stroke-linecap="round"><g transform="translate(465.6304016113281 264.6494140625) rotate(0 20.714423908176855 -10.229753371733239)"><path d="M-0.59 0.57 C6.18 -2.57, 32.87 -16.05, 39.87 -19.38 M1.31 -0.18 C8.5 -3.6, 35.41 -17.51, 42.02 -21.03" stroke="#000000" stroke-width="1" fill="none"></path></g><g transform="translate(465.6304016113281 264.6494140625) rotate(0 20.714423908176855 -10.229753371733239)"><path d="M27.55 -5.95 C31.85 -7.28, 35.46 -10.38, 43.22 -22.03 M26.87 -5.12 C33.28 -11.61, 38.85 -17.83, 42.37 -21.49" stroke="#000000" stroke-width="1" fill="none"></path></g><g transform="translate(465.6304016113281 264.6494140625) rotate(0 20.714423908176855 -10.229753371733239)"><path d="M20.31 -19.81 C26.26 -17.81, 31.59 -17.63, 43.22 -22.03 M19.63 -18.98 C28.83 -19.94, 37.26 -20.68, 42.37 -21.49" stroke="#000000" stroke-width="1" fill="none"></path></g></g><g stroke-linecap="round"><g transform="translate(460.0943908691406 290.6770935058594) rotate(0 15.241557399183478 6.311342127071697)"><path d="M-1.1 0.67 C4.18 2.67, 26.1 9.8, 31.58 11.65 M0.53 -0.02 C5.65 2.12, 25.52 10.54, 30.62 12.65" stroke="#000000" stroke-width="1" fill="none"></path></g><g transform="translate(460.0943908691406 290.6770935058594) rotate(0 15.241557399183478 6.311342127071697)"><path d="M14.56 11.79 C17.14 12.45, 22.34 13.84, 31.38 11.87 M13.83 11.13 C19.34 12.33, 25.23 11.89, 30.53 12.47" stroke="#000000" stroke-width="1" fill="none"></path></g><g transform="translate(460.0943908691406 290.6770935058594) rotate(0 15.241557399183478 6.311342127071697)"><path d="M19.06 1.05 C20.29 4.82, 24.16 9.37, 31.38 11.87 M18.33 0.38 C22.38 5.26, 26.72 8.51, 30.53 12.47" stroke="#000000" stroke-width="1" fill="none"></path></g></g><g stroke-linecap="round"><g transform="translate(414.4786682128906 309.2572326660156) rotate(0 0.9599779570614828 8.824975325041464)"><path d="M-0.07 0.62 C0.43 3.39, 3.02 14.87, 3.49 17.75 M-1.57 -0.1 C-1.16 2.82, 2.51 13.21, 3.13 15.87" stroke="#000000" stroke-width="1" fill="none"></path></g><g transform="translate(414.4786682128906 309.2572326660156) rotate(0 0.9599779570614828 8.824975325041464)"><path d="M-1.62 9.68 C0.09 11.51, 1.93 14.16, 3.68 16.47 M-2.49 8.96 C0.26 11.97, 1.96 14.21, 3.54 15.47" stroke="#000000" stroke-width="1" fill="none"></path></g><g transform="translate(414.4786682128906 309.2572326660156) rotate(0 0.9599779570614828 8.824975325041464)"><path d="M4.1 7.98 C3.89 10.37, 3.81 13.6, 3.68 16.47 M3.22 7.25 C3.75 10.93, 3.25 13.83, 3.54 15.47" stroke="#000000" stroke-width="1" fill="none"></path></g></g><g stroke-linecap="round"><g transform="translate(146.21258544921875 334.0751647949219) rotate(0 -3.0636964381719167 12.304565189229322)"><path d="M0.06 0.44 C-0.65 4.49, -4.3 19.88, -5.4 24.06 M-1.37 -0.38 C-2.11 3.8, -5.72 20.42, -6.19 24.99" stroke="#000000" stroke-width="1" fill="none"></path></g><g transform="translate(146.21258544921875 334.0751647949219) rotate(0 -3.0636964381719167 12.304565189229322)"><path d="M-8.11 12.62 C-9.36 13.97, -7.27 18.13, -7.21 24.47 M-8.8 12.91 C-7.33 16.81, -7.28 19.98, -5.92 24.81" stroke="#000000" stroke-width="1" fill="none"></path></g><g transform="translate(146.21258544921875 334.0751647949219) rotate(0 -3.0636964381719167 12.304565189229322)"><path d="M0.62 14.06 C-2.43 15.11, -2.13 18.98, -7.21 24.47 M-0.07 14.34 C-1.3 17.87, -3.96 20.59, -5.92 24.81" stroke="#000000" stroke-width="1" fill="none"></path></g></g><g stroke-linecap="round"><g transform="translate(70.91415405273438 416.4302673339844) rotate(0 -0.46551745126487276 45.76748861762229)"><path d="M0.33 -1.18 C-0.02 14.08, -1.58 75.96, -1.65 91.23 M-0.95 0.81 C-0.95 16.3, 0.62 77.62, 0.72 92.72" stroke="#000000" stroke-width="1" fill="none"></path></g><g transform="translate(70.91415405273438 416.4302673339844) rotate(0 -0.46551745126487276 45.76748861762229)"><path d="M-11.99 63.61 C-6.62 75.76, -4.21 84.74, -1.09 94.46 M-10.19 64.12 C-5.9 75.91, -1.1 84.84, 1.43 92.75" stroke="#000000" stroke-width="1" fill="none"></path></g><g transform="translate(70.91415405273438 416.4302673339844) rotate(0 -0.46551745126487276 45.76748861762229)"><path d="M8.53 63.26 C6.91 75.58, 2.34 84.69, -1.09 94.46 M10.33 63.77 C6.91 75.61, 4 84.67, 1.43 92.75" stroke="#000000" stroke-width="1" fill="none"></path></g></g><g stroke-linecap="round"><g transform="translate(86.707275390625 573.0672912597656) rotate(0 6.197930109254088 8.692487997161265)"><path d="M-0.09 -0.14 C2.18 2.69, 11.65 14.15, 14 17.03 M-1.6 -1.26 C0.49 1.79, 10.63 15.34, 13.11 18.64" stroke="#000000" stroke-width="1" fill="none"></path></g><g transform="translate(86.707275390625 573.0672912597656) rotate(0 6.197930109254088 8.692487997161265)"><path d="M3.84 12.76 C7.11 14.73, 10.2 17.25, 13.8 18.97 M3.6 12.64 C6.73 13.57, 8.19 15.58, 13.3 18.16" stroke="#000000" stroke-width="1" fill="none"></path></g><g transform="translate(86.707275390625 573.0672912597656) rotate(0 6.197930109254088 8.692487997161265)"><path d="M9.83 8.28 C11.13 11.71, 12.26 15.71, 13.8 18.97 M9.59 8.16 C11.3 10.19, 11.32 13.28, 13.3 18.16" stroke="#000000" stroke-width="1" fill="none"></path></g></g></svg>