<svg version="1.1" xmlns="http://www.w3.org/2000/svg" viewBox="0 0 854.0368854127369 595.2745971679688" width="1708.0737708254737" height="1190.5491943359375">
  <!-- svg-source:excalidraw -->
  
  <defs>
    <style>
      @font-face {
        font-family: "Virgil";
        src: url("https://excalidraw.com/Virgil.woff2");
      }
      @font-face {
        font-family: "Cascadia";
        src: url("https://excalidraw.com/Cascadia.woff2");
      }
    </style>
  </defs>
  <rect x="0" y="0" width="854.0368854127369" height="595.2745971679688" fill="#ffffff"></rect><g stroke-linecap="round" transform="translate(14.688262939453125 10) rotate(0 78 17.5)"><path d="M0.14 1.17 C60.46 -0.59, 120.99 -1.95, 155.52 -0.86 M-0.65 -0.92 C34.93 1.96, 67.69 0.98, 156.3 -0.46 M157.79 -1.07 C154.66 12.43, 156.66 23.77, 157.49 36.22 M155.03 0.39 C156.44 10.89, 156.65 21.43, 155.64 35.67 M155.89 34.84 C112.54 36.14, 70.74 35.46, 1.23 34.95 M155.18 34.67 C111.48 37.02, 67.99 37.03, -0.39 35.93 M0.34 36.81 C-0.36 20.74, -1.03 8.53, 0.18 -0.22 M0.73 35.06 C0.79 25.53, -0.11 16.41, 0.05 0.5" stroke="#000000" stroke-width="1" fill="none"></path></g><g transform="translate(19.688262939453125 15) rotate(0 73 12.5)"><text x="73" y="18" font-family="Virgil, Segoe UI Emoji" font-size="20px" fill="#000000" text-anchor="middle" style="white-space: pre;" direction="ltr">Replication</text></g><g transform="translate(10 70.15216064453125) rotate(0 295.5 19.5)"><text x="0" y="15.5" font-family="Cascadia, Segoe UI Emoji" font-size="16px" fill="#000000" text-anchor="start" style="white-space: pre;" direction="ltr">Three popular algorithms for replicating changes between nodes:</text><text x="0" y="35" font-family="Cascadia, Segoe UI Emoji" font-size="16px" fill="#000000" text-anchor="start" style="white-space: pre;" direction="ltr">Single-leader, multi-leader and leaderless replication.</text></g><g transform="translate(21.362335205078125 149.58395385742188) rotate(0 99 10)"><text x="0" y="16" font-family="Cascadia, Segoe UI Emoji" font-size="16px" fill="#000000" text-anchor="start" style="white-space: pre;" direction="ltr">Leaders and Followers</text></g><g transform="translate(19.03839111328125 193.26168823242188) rotate(0 385 58.5)"><text x="0" y="15.5" font-family="Cascadia, Segoe UI Emoji" font-size="16px" fill="#000000" text-anchor="start" style="white-space: pre;" direction="ltr">Leader based replication:</text><text x="0" y="35" font-family="Cascadia, Segoe UI Emoji" font-size="16px" fill="#000000" text-anchor="start" style="white-space: pre;" direction="ltr">1. Of of the replicas is designated as the leader. Writes from client are sent</text><text x="0" y="54.5" font-family="Cascadia, Segoe UI Emoji" font-size="16px" fill="#000000" text-anchor="start" style="white-space: pre;" direction="ltr">   to the leader node which first writes to it's local storage</text><text x="0" y="74" font-family="Cascadia, Segoe UI Emoji" font-size="16px" fill="#000000" text-anchor="start" style="white-space: pre;" direction="ltr">2. It also sends data change to all the followers as part of the replication log</text><text x="0" y="93.5" font-family="Cascadia, Segoe UI Emoji" font-size="16px" fill="#000000" text-anchor="start" style="white-space: pre;" direction="ltr">   or change stream.</text><text x="0" y="113" font-family="Cascadia, Segoe UI Emoji" font-size="16px" fill="#000000" text-anchor="start" style="white-space: pre;" direction="ltr">3. Client can query either the leader or any of the followers to read from the DB.</text></g><g stroke-linecap="round" transform="translate(63.97428898316923 433.8843200916526) rotate(0 3.524719966351853 2.7471694023690247)"><path d="M3.02 -0.85 C3.72 -1.15, 5.15 -0.94, 5.78 -0.47 C6.4 0.01, 6.4 1.49, 6.77 2 C7.13 2.52, 7.98 2.29, 7.96 2.61 C7.94 2.94, 7.38 3.48, 6.66 3.95 C5.94 4.41, 4.57 5.15, 3.64 5.4 C2.7 5.64, 1.65 5.74, 1.03 5.42 C0.41 5.11, 0.09 4.09, -0.07 3.5 C-0.24 2.91, -0.28 2.3, 0.03 1.89 C0.35 1.48, 1.25 1.47, 1.82 1.04 C2.4 0.6, 3.19 -0.77, 3.5 -0.72 M3.34 0.8 C4.22 0.55, 5.19 0.3, 5.66 0.46 C6.13 0.63, 6.07 1.45, 6.17 1.81 C6.26 2.17, 6.15 2.27, 6.23 2.63 C6.31 2.98, 6.92 3.61, 6.64 3.94 C6.37 4.27, 5.33 4.45, 4.58 4.6 C3.84 4.75, 2.97 5.01, 2.15 4.85 C1.34 4.69, -0.14 4.16, -0.31 3.63 C-0.48 3.11, 0.82 2.07, 1.11 1.69 C1.4 1.32, 1.24 1.57, 1.43 1.38 C1.61 1.19, 2.19 0.77, 2.23 0.55" stroke="none" stroke-width="0" fill="#fa5252"></path><path d="M4.2 -0.02 C5.11 0.12, 6.81 1.11, 7.42 1.83 C8.03 2.54, 8.17 3.67, 7.85 4.27 C7.53 4.88, 6.1 5.18, 5.5 5.48 C4.9 5.77, 4.88 6.08, 4.25 6.03 C3.61 5.99, 2.27 5.72, 1.7 5.2 C1.14 4.68, 1.19 3.52, 0.84 2.9 C0.49 2.27, -0.73 1.75, -0.4 1.44 C-0.08 1.14, 1.86 1.34, 2.79 1.06 C3.73 0.78, 4.78 -0.18, 5.22 -0.24 C5.66 -0.3, 5.44 0.53, 5.44 0.7 M3.99 -0.92 C4.66 -1, 5.31 -0.82, 5.77 -0.32 C6.23 0.18, 6.77 1.31, 6.75 2.1 C6.72 2.88, 6.26 3.75, 5.6 4.37 C4.95 5, 3.2 5.79, 2.82 5.86 C2.44 5.92, 3.65 4.98, 3.32 4.76 C3 4.54, 1.2 4.99, 0.87 4.55 C0.54 4.11, 1.29 2.93, 1.33 2.11 C1.37 1.28, 0.51 -0.26, 1.13 -0.41 C1.76 -0.56, 4.71 1.1, 5.07 1.22 C5.44 1.33, 3.61 0.63, 3.33 0.27" stroke="#000000" stroke-width="1" fill="none"></path></g><g stroke-linecap="round"><g transform="translate(67.44165775087873 437.5433805829341) rotate(0 0.37224678186620963 1.9369322808314564)"><path d="M0.81 0.89 C0.78 1.3, -0.53 3.27, -0.81 3.56 M-0.22 0.32 C0.19 0.89, 1.25 1.22, 1.55 1.8" stroke="#000000" stroke-width="1" fill="none"></path></g></g><g stroke-linecap="round"><g transform="translate(63.27923843988742 440.7350130699157) rotate(0 5.420782517917246 0.3540360158806948)"><path d="M0.89 -0.66 C2.53 -0.92, 9.42 -1, 10.94 -0.73 M-0.1 1.61 C1.34 1.42, 8.82 0.83, 10.36 0.42" stroke="#000000" stroke-width="1" fill="none"></path></g></g><g stroke-linecap="round"><g transform="translate(67.7225138191485 441.16876827490864) rotate(0 0.20689371584336413 2.5043771778020982)"><path d="M-0.66 0.7 C-0.95 1.15, -1.16 2.98, -0.92 3.58 M1.19 0.02 C1.22 0.57, 1.52 4.62, 1.41 4.99" stroke="#000000" stroke-width="1" fill="none"></path></g></g><g stroke-linecap="round"><g transform="translate(68.54141332755057 445.683527592936) rotate(0 -2.2214870984540482 2.289849306051792)"><path d="M0.7 -0.73 C-0.13 0.26, -3.39 4.29, -4.06 5.31 M-0.39 1.49 C-1.48 2.23, -4.57 3.35, -5.14 3.7" stroke="#000000" stroke-width="1" fill="none"></path></g></g><g stroke-linecap="round"><g transform="translate(68.01597691943209 446.088512324731) rotate(0 1.946164034166145 1.7434955814728141)"><path d="M-0.73 -0.25 C0.15 0.45, 3.72 3.93, 4.63 4.91 M1.08 -1.42 C1.95 -1.15, 3.62 2.15, 4.18 3.04" stroke="#000000" stroke-width="1" fill="none"></path></g></g><g transform="translate(56.902778337776 456.3006674546941) rotate(0 12.928853186174337 6.2157948010453765)"><text x="0" y="8.43158960209073" font-family="Virgil, Segoe UI Emoji" font-size="9.945271681672573px" fill="#000000" text-anchor="start" style="white-space: pre;" direction="ltr">client</text></g><g stroke-linecap="round" transform="translate(177.97317620115075 412.387849760667) rotate(0 36.433167979186464 8.017205433276388)"><path d="M24.99 -0.47 C31.87 -1.06, 43.01 -0.57, 50.22 0.19 C57.42 0.95, 64.48 2.48, 68.21 4.1 C71.94 5.72, 73.95 8.13, 72.59 9.89 C71.22 11.65, 66.24 13.47, 60.04 14.66 C53.83 15.84, 43.24 17.12, 35.35 17.01 C27.45 16.91, 18.48 15.28, 12.67 14.02 C6.87 12.75, 1.84 11.23, 0.53 9.41 C-0.78 7.59, 0 4.72, 4.81 3.08 C9.63 1.45, 24.36 0.11, 29.44 -0.41 C34.52 -0.93, 35.13 -0.18, 35.3 -0.03 M22.25 0.1 C28.48 -0.95, 37.64 -0.96, 45.16 -0.24 C52.68 0.48, 62.74 2.93, 67.38 4.43 C72.03 5.94, 74.02 7.48, 73.02 8.8 C72.01 10.13, 67.03 11.37, 61.35 12.38 C55.66 13.4, 46.82 14.53, 38.92 14.87 C31.03 15.21, 20.43 15.01, 13.98 14.41 C7.54 13.8, 2.16 12.88, 0.25 11.26 C-1.66 9.64, -1.17 6.38, 2.53 4.68 C6.23 2.97, 19.16 1.59, 22.47 1.05 C25.78 0.51, 22.23 1.24, 22.4 1.44" stroke="none" stroke-width="0" fill="#fa5252"></path><path d="M37.2 0.35 C44.52 0.28, 53.61 0.77, 59.45 1.95 C65.29 3.14, 70.9 5.89, 72.25 7.45 C73.59 9.01, 71.27 9.8, 67.51 11.32 C63.75 12.84, 56.79 15.82, 49.67 16.55 C42.55 17.28, 32.31 16.54, 24.78 15.71 C17.25 14.88, 8.5 13.02, 4.5 11.57 C0.49 10.12, -0.78 8.58, 0.73 7 C2.25 5.42, 6.7 3.1, 13.61 2.06 C20.52 1.03, 36.63 1.11, 42.17 0.8 C47.72 0.5, 47.12 0.06, 46.89 0.23 M19.84 1.89 C26.21 0.85, 36.79 -0.84, 44.33 -0.5 C51.86 -0.17, 60.51 2.57, 65.06 3.89 C69.6 5.21, 72.16 5.74, 71.61 7.41 C71.05 9.08, 67.04 12.46, 61.71 13.89 C56.39 15.33, 47.13 15.9, 39.68 16.01 C32.24 16.13, 23.41 15.54, 17.05 14.58 C10.7 13.62, 3.8 12.1, 1.55 10.25 C-0.69 8.41, 0.39 5.24, 3.6 3.49 C6.81 1.74, 18.13 0.28, 20.82 -0.26 C23.52 -0.8, 19.82 -0.09, 19.77 0.25" stroke="#000000" stroke-width="1" fill="none"></path></g><g stroke-linecap="round"><g transform="translate(177.0180909989955 419.0237797221987) rotate(0 0.28848475651989247 31.910848302382078)"><path d="M1.08 0 C1.06 10.73, 0.38 52.74, 0.38 63.39 M0.18 -1.04 C-0.02 9.97, -0.59 54.39, -0.49 64.86" stroke="#000000" stroke-width="1" fill="none"></path></g></g><g stroke-linecap="round"><g transform="translate(250.82000132033056 416.20077180651526) rotate(0 -1.9194745254828263 36.14668488128024)"><path d="M0 0.15 C-0.3 12.15, -2.44 61.18, -2.82 73.11 M-1.45 -0.82 C-1.85 11.37, -3.61 59.18, -3.84 71.44" stroke="#000000" stroke-width="1" fill="none"></path></g></g><g stroke-linecap="round"><g transform="translate(182.84616092496947 486.7308412109775) rotate(0 34.52442286752927 -1.3478210563722541)"><path d="M0.15 -0.13 C11.68 -0.24, 58.82 -0.48, 70.28 -0.62 M-1.23 -1.25 C10.12 -1.72, 58.27 -2.8, 69.79 -2.52" stroke="#000000" stroke-width="1" fill="none"></path></g></g><g transform="translate(203.0051795054593 449.23350591349356) rotate(0 15.318007848589957 12.353232135959615)"><text x="0" y="17.706464271919273" font-family="Virgil, Segoe UI Emoji" font-size="19.76517141753541px" fill="#000000" text-anchor="start" style="white-space: pre;" direction="ltr">DB</text></g><g stroke-linecap="round" transform="translate(452.26968499021325 356.272371245042) rotate(0 36.433167979186464 8.017205433276388)"><path d="M53.45 0.78 C60.33 1.55, 67.38 2.86, 70.42 4.59 C73.47 6.32, 74.06 9.5, 71.73 11.17 C69.39 12.84, 63.29 13.88, 56.42 14.62 C49.55 15.37, 38.3 16.03, 30.52 15.66 C22.73 15.3, 14.77 13.6, 9.71 12.43 C4.66 11.26, 0.49 10.23, 0.19 8.63 C-0.11 7.03, 3.16 4.4, 7.93 2.83 C12.69 1.26, 20.36 -0.47, 28.79 -0.8 C37.21 -1.13, 53.03 0.47, 58.49 0.85 C63.94 1.23, 62.16 1.22, 61.54 1.48 M50.58 1.94 C57.53 2.61, 63.92 4.48, 67.33 5.54 C70.74 6.6, 72.28 6.95, 71.04 8.3 C69.81 9.65, 66 12.51, 59.93 13.64 C53.86 14.76, 42.43 14.78, 34.61 15.06 C26.8 15.35, 18.63 16.35, 13.03 15.36 C7.44 14.36, 2.35 11.09, 1.03 9.09 C-0.28 7.1, 0.83 5.07, 5.13 3.39 C9.44 1.72, 19.09 -0.65, 26.86 -0.98 C34.63 -1.31, 47.9 0.99, 51.75 1.42 C55.6 1.85, 50.49 1.69, 49.94 1.58" stroke="none" stroke-width="0" fill="#fa5252"></path><path d="M35.89 -0.35 C43.38 -0.29, 53.44 1.16, 59.4 2.47 C65.37 3.78, 70.15 5.81, 71.69 7.49 C73.22 9.17, 72.27 11.35, 68.61 12.56 C64.95 13.77, 57.25 14.27, 49.74 14.76 C42.24 15.25, 30.96 16.1, 23.6 15.49 C16.24 14.88, 9.41 12.55, 5.6 11.1 C1.8 9.65, -0.56 8.35, 0.77 6.79 C2.1 5.23, 6.89 2.89, 13.6 1.73 C20.3 0.56, 35.28 -0.03, 41 -0.2 C46.73 -0.36, 47.94 0.5, 47.94 0.74 M23.83 0.25 C30.43 -0.23, 39.43 0.62, 46.83 1.05 C54.23 1.48, 63.75 1.49, 68.26 2.83 C72.77 4.16, 74.9 7.4, 73.89 9.04 C72.88 10.67, 67.96 11.57, 62.18 12.63 C56.4 13.69, 47.41 15.13, 39.2 15.4 C30.99 15.68, 19.46 15.02, 12.92 14.27 C6.37 13.52, 1.24 12.35, -0.05 10.88 C-1.33 9.42, 1.58 6.95, 5.21 5.47 C8.85 3.99, 19.01 2.66, 21.77 2 C24.54 1.34, 21.21 1.8, 21.81 1.54" stroke="#000000" stroke-width="1" fill="none"></path></g><g stroke-linecap="round"><g transform="translate(451.314599788058 362.9083012065737) rotate(0 0.24219389571391048 31.642406236666318)"><path d="M0.12 -0.02 C0.21 10.46, -0.52 52.54, -0.55 63.07 M-1.27 -1.08 C-0.71 9.55, 1.7 53.48, 1.75 64.36" stroke="#000000" stroke-width="1" fill="none"></path></g></g><g stroke-linecap="round"><g transform="translate(525.1165101093931 360.08529329089015) rotate(0 -2.181568607123097 36.30148666439487)"><path d="M-0.02 -0.78 C-0.58 11.2, -2.64 59.86, -3.15 71.99 M-1.49 1.42 C-2.26 13.57, -3.91 61.42, -4.34 73.38" stroke="#000000" stroke-width="1" fill="none"></path></g></g><g stroke-linecap="round"><g transform="translate(457.14266971403197 430.61536269535236) rotate(0 34.18774572143627 -0.9377637564232941)"><path d="M-0.78 -0.46 C10.73 -0.7, 57.5 -1.48, 69.16 -1.45 M1.01 -1.75 C12.32 -1.82, 56.86 -0.05, 68.07 -0.13" stroke="#000000" stroke-width="1" fill="none"></path></g></g><g transform="translate(477.3016882945218 393.11802739786845) rotate(0 15.318007848589957 12.353232135959615)"><text x="0" y="17.706464271919273" font-family="Virgil, Segoe UI Emoji" font-size="19.76517141753541px" fill="#000000" text-anchor="start" style="white-space: pre;" direction="ltr">DB</text></g><g stroke-linecap="round" transform="translate(464.732514580057 469.89987368644825) rotate(0 36.433167979186464 8.017205433276388)"><path d="M42.07 -0.24 C49.23 -0.23, 57.72 1.43, 62.81 2.68 C67.9 3.93, 72.33 5.42, 72.61 7.27 C72.89 9.11, 69.23 12.46, 64.48 13.77 C59.74 15.07, 51.83 14.75, 44.16 15.09 C36.49 15.43, 25.37 16.54, 18.48 15.8 C11.58 15.06, 5.58 12.24, 2.82 10.63 C0.05 9.02, -0.69 7.63, 1.86 6.16 C4.41 4.69, 10.51 2.7, 18.12 1.81 C25.73 0.91, 41.94 0.78, 47.53 0.79 C53.11 0.8, 51.72 1.69, 51.64 1.86 M19.67 1.2 C26.01 0.1, 37.2 -0.52, 44.81 -0.19 C52.43 0.15, 60.91 1.75, 65.35 3.21 C69.8 4.66, 72.13 6.96, 71.47 8.55 C70.81 10.13, 66.69 11.36, 61.41 12.7 C56.13 14.05, 47.49 16.31, 39.78 16.63 C32.07 16.94, 21.63 15.71, 15.15 14.59 C8.66 13.48, 2.79 11.38, 0.9 9.94 C-0.99 8.51, 0.52 7.27, 3.81 5.96 C7.1 4.65, 17.96 3.14, 20.63 2.09 C23.3 1.03, 19.8 -0.33, 19.83 -0.39" stroke="none" stroke-width="0" fill="#fa5252"></path><path d="M37.92 -0.61 C45.03 -0.36, 53.71 1.71, 59.38 2.94 C65.05 4.16, 70.65 5.04, 71.92 6.73 C73.19 8.41, 70.78 11.48, 67 13.05 C63.21 14.61, 56.49 15.76, 49.22 16.1 C41.95 16.43, 30.85 15.62, 23.37 15.06 C15.9 14.49, 8.28 14.01, 4.35 12.71 C0.42 11.42, -1.83 9.15, -0.21 7.29 C1.41 5.44, 7.04 2.85, 14.07 1.58 C21.11 0.3, 36.81 -0.06, 41.97 -0.36 C47.14 -0.66, 45.21 -0.38, 45.08 -0.21 M25.83 0.7 C32.44 0.05, 42 -0.2, 49.06 0.48 C56.12 1.16, 64.13 3.4, 68.2 4.79 C72.28 6.18, 74.86 7.21, 73.5 8.81 C72.14 10.42, 66.57 13.13, 60.06 14.4 C53.56 15.67, 42.53 16.66, 34.47 16.44 C26.42 16.23, 17.33 14.28, 11.71 13.09 C6.1 11.89, 1.82 10.71, 0.78 9.28 C-0.27 7.85, 1.49 5.91, 5.44 4.53 C9.39 3.15, 21.23 1.84, 24.49 1.02 C27.74 0.2, 24.48 -0.62, 24.97 -0.41" stroke="#000000" stroke-width="1" fill="none"></path></g><g stroke-linecap="round"><g transform="translate(463.77742937790174 476.53580364797995) rotate(0 0.1400361485784174 31.129936261910018)"><path d="M0.3 0.05 C0.35 10.58, 1.14 51.87, 1.28 62.33 M-1 -0.98 C-1.1 9.73, 0.57 52.45, 0.89 63.24" stroke="#000000" stroke-width="1" fill="none"></path></g></g><g stroke-linecap="round"><g transform="translate(537.5793396992368 473.7127957322964) rotate(0 -1.9227873340048518 36.88554816527204)"><path d="M0.05 1.05 C-0.46 13.2, -3.31 61.54, -3.89 73.21 M-1.39 0.56 C-1.47 12.36, -1.89 59.73, -1.81 71.59" stroke="#000000" stroke-width="1" fill="none"></path></g></g><g stroke-linecap="round"><g transform="translate(469.6054993038757 544.2428651367586) rotate(0 35.26328615152107 -0.518880697439215)"><path d="M1.05 -1.2 C12.73 -1.5, 59.19 -1.99, 70.38 -1.77 M0.14 0.79 C11.72 0.62, 58.21 -0.22, 69.94 -0.62" stroke="#000000" stroke-width="1" fill="none"></path></g></g><g transform="translate(489.76451788436555 506.7455298392747) rotate(0 15.318007848589957 12.353232135959615)"><text x="0" y="17.706464271919273" font-family="Virgil, Segoe UI Emoji" font-size="19.76517141753541px" fill="#000000" text-anchor="start" style="white-space: pre;" direction="ltr">DB</text></g><g transform="translate(187.82040405273438 347.6102294921875) rotate(0 33.5 19.5)"><text x="0" y="15.5" font-family="Cascadia, Segoe UI Emoji" font-size="16px" fill="#000000" text-anchor="start" style="white-space: pre;" direction="ltr">Leader </text><text x="0" y="35" font-family="Cascadia, Segoe UI Emoji" font-size="16px" fill="#000000" text-anchor="start" style="white-space: pre;" direction="ltr">replica</text></g><g transform="translate(541.4911193847656 361.955322265625) rotate(0 75.5 10)"><text x="0" y="16" font-family="Cascadia, Segoe UI Emoji" font-size="16px" fill="#000000" text-anchor="start" style="white-space: pre;" direction="ltr">Follower replica</text></g><g transform="translate(549.9356994628906 496.5172119140625) rotate(0 75.5 10)"><text x="0" y="16" font-family="Cascadia, Segoe UI Emoji" font-size="16px" fill="#000000" text-anchor="start" style="white-space: pre;" direction="ltr">Follower replica</text></g><g stroke-linecap="round"><g transform="translate(95.21319580078125 458.5860595703125) rotate(0 39.97223329289349 -1.1615052178502197)"><path d="M0.07 -0.3 C13.77 -0.45, 67.8 -1.8, 81.3 -2.02 M-1.35 -1.5 C12.26 -1.46, 66.75 -1.24, 80.33 -1.11" stroke="#000000" stroke-width="1" fill="none"></path></g><g transform="translate(95.21319580078125 458.5860595703125) rotate(0 39.97223329289349 -1.1615052178502197)"><path d="M51.57 8.91 C56.57 6.2, 63.64 4.82, 81.71 -0.67 M51.85 8.15 C62.18 5.85, 71.42 1.67, 81.17 -0.52" stroke="#000000" stroke-width="1" fill="none"></path></g><g transform="translate(95.21319580078125 458.5860595703125) rotate(0 39.97223329289349 -1.1615052178502197)"><path d="M51.7 -11.61 C56.49 -9.68, 63.52 -6.41, 81.71 -0.67 M51.99 -12.38 C62.46 -7.89, 71.65 -5.28, 81.17 -0.52" stroke="#000000" stroke-width="1" fill="none"></path></g></g><g stroke-linecap="round"><g transform="translate(255.52548217773438 453.98907470703125) rotate(0 79.28841862423815 -22.31848858308979)"><path d="M0.82 -0.89 C12.43 -2.76, 44.19 -5.18, 70.52 -12.35 C96.85 -19.53, 143.99 -38.5, 158.79 -43.94 M-0.21 1.25 C11.22 -0.83, 43.5 -6.08, 69.89 -13.93 C96.27 -21.79, 143.1 -40.88, 158.1 -45.89" stroke="#000000" stroke-width="1" fill="none"></path></g></g><g stroke-linecap="round"><g transform="translate(413.4748229980469 409.842529296875) rotate(0 18.635830774144267 -7.109472539336423)"><path d="M0.01 1.18 C6.66 -1.23, 32.41 -11.06, 38.71 -13.41 M-1.44 0.76 C5.14 -1.53, 30.76 -12.79, 37.69 -15.4" stroke="#000000" stroke-width="1" fill="none"></path></g><g transform="translate(413.4748229980469 409.842529296875) rotate(0 18.635830774144267 -7.109472539336423)"><path d="M24.43 -1.77 C25.86 -6.08, 29.75 -7.68, 37.99 -16.77 M22.97 -1.51 C28.7 -6.07, 34.34 -10.88, 38.03 -15.61" stroke="#000000" stroke-width="1" fill="none"></path></g><g transform="translate(413.4748229980469 409.842529296875) rotate(0 18.635830774144267 -7.109472539336423)"><path d="M19.09 -14.8 C21.72 -16.46, 26.7 -15.4, 37.99 -16.77 M17.63 -14.54 C25.2 -14.32, 32.79 -14.37, 38.03 -15.61" stroke="#000000" stroke-width="1" fill="none"></path></g></g><g stroke-linecap="round"><g transform="translate(258.1471252441406 460.1705322265625) rotate(0 86.38595729258844 18.886807440458824)"><path d="M0.23 -0.45 C19.49 1.21, 86.76 2.08, 115.32 8.74 C143.87 15.39, 162.05 34.59, 171.56 39.5 M-1.11 -1.73 C18.08 -0.32, 85.59 0.43, 114.76 6.95 C143.92 13.48, 164.26 32.12, 173.88 37.44" stroke="#000000" stroke-width="1" fill="none"></path></g></g><g stroke-linecap="round"><g transform="translate(433.9883117675781 500.505126953125) rotate(0 17.194050909475436 -1.6800346183368902)"><path d="M0.57 -0.6 C6.2 -1.13, 29.29 -2.75, 34.98 -3.39 M-0.6 1.69 C4.81 0.86, 28.47 -4.24, 34.24 -5.05" stroke="#000000" stroke-width="1" fill="none"></path></g><g transform="translate(433.9883117675781 500.505126953125) rotate(0 17.194050909475436 -1.6800346183368902)"><path d="M18.32 4.33 C26.47 0.36, 30.97 -2.56, 33.93 -3.48 M19.65 3.13 C24.14 0.49, 28.06 -1.15, 34.75 -5.58" stroke="#000000" stroke-width="1" fill="none"></path></g><g transform="translate(433.9883117675781 500.505126953125) rotate(0 17.194050909475436 -1.6800346183368902)"><path d="M16.18 -7.4 C25.15 -6.72, 30.5 -4.97, 33.93 -3.48 M17.5 -8.6 C22.64 -7.67, 27.21 -5.73, 34.75 -5.58" stroke="#000000" stroke-width="1" fill="none"></path></g></g><g transform="translate(90.07052612304688 473.0396728515625) rotate(0 33.5 10)"><text x="0" y="16" font-family="Cascadia, Segoe UI Emoji" font-size="16px" fill="#000000" text-anchor="start" style="white-space: pre;" direction="ltr">Updates</text></g><g stroke-linecap="round" transform="translate(825.2506896857813 515.9241760486839) rotate(0 3.5247199663518813 2.7471694023690247)"><path d="M3.98 -0.59 C4.42 -0.55, 4.51 0.15, 4.93 0.49 C5.35 0.82, 6.05 0.74, 6.48 1.44 C6.9 2.14, 7.85 4.04, 7.48 4.69 C7.12 5.33, 5.11 5.15, 4.26 5.33 C3.41 5.5, 3.06 5.97, 2.38 5.74 C1.7 5.5, 0.56 4.6, 0.18 3.94 C-0.19 3.29, 0.12 2.31, 0.12 1.81 C0.13 1.3, -0.48 1.17, 0.22 0.91 C0.92 0.65, 3.66 0.46, 4.34 0.27 C5.01 0.07, 4.21 -0.23, 4.28 -0.28 M5.15 -0.33 C5.67 -0.11, 5.62 1.67, 5.9 2.14 C6.18 2.61, 6.96 1.91, 6.82 2.48 C6.69 3.05, 5.83 5.01, 5.09 5.55 C4.34 6.1, 2.92 5.82, 2.35 5.77 C1.79 5.72, 1.87 5.92, 1.67 5.25 C1.48 4.59, 1.49 2.58, 1.17 1.76 C0.85 0.94, -0.57 0.5, -0.26 0.33 C0.04 0.17, 2.02 0.82, 3 0.75 C3.98 0.68, 5.27 0.18, 5.62 -0.08 C5.98 -0.33, 5.51 -1.06, 5.14 -0.77" stroke="none" stroke-width="0" fill="#fa5252"></path><path d="M1.93 0.62 C2.38 0.2, 3.05 -0.46, 3.78 -0.3 C4.51 -0.14, 5.92 1.01, 6.3 1.59 C6.69 2.17, 6.04 2.7, 6.06 3.18 C6.09 3.66, 6.85 4.16, 6.47 4.48 C6.08 4.79, 4.73 5.04, 3.76 5.06 C2.78 5.08, 1.31 4.92, 0.6 4.6 C-0.11 4.28, -0.43 3.73, -0.52 3.13 C-0.61 2.53, -0.61 1.43, 0.07 1 C0.74 0.56, 2.86 0.65, 3.51 0.52 C4.17 0.39, 4.01 0.16, 4 0.23 M2.12 0.36 C2.88 0.37, 4.8 -0.21, 5.8 0.13 C6.8 0.47, 7.94 1.65, 8.12 2.4 C8.29 3.15, 7.37 4.25, 6.84 4.63 C6.31 5.02, 5.78 4.79, 4.94 4.69 C4.1 4.59, 2.27 4, 1.81 4.04 C1.35 4.09, 2.34 4.9, 2.16 4.95 C1.97 5, 1.08 4.76, 0.7 4.36 C0.31 3.97, -0.65 3.36, -0.15 2.58 C0.34 1.8, 3.01 -0.03, 3.69 -0.32 C4.36 -0.6, 3.97 0.77, 3.9 0.87" stroke="#000000" stroke-width="1" fill="none"></path></g><g stroke-linecap="round"><g transform="translate(828.7180584534908 519.5832365399654) rotate(0 0.07726074988215714 1.4801889389095777)"><path d="M0.68 -0.82 C0.67 -0.19, 0.45 3.07, 0.23 3.78 M-0.43 1.37 C-0.59 1.67, -0.31 2.14, -0.52 2.14" stroke="#000000" stroke-width="1" fill="none"></path></g></g><g stroke-linecap="round"><g transform="translate(824.5556391424996 522.7748690269468) rotate(0 5.170806567995555 0.13480684766079776)"><path d="M-0.82 0.38 C1.04 0.18, 9.22 -0.24, 11.16 -0.5 M0.96 -0.47 C2.74 -0.57, 9.13 0.77, 10.69 0.77" stroke="#000000" stroke-width="1" fill="none"></path></g></g><g stroke-linecap="round"><g transform="translate(828.9989145217605 523.2086242319399) rotate(0 -0.7875813090400925 2.3718519667743294)"><path d="M0.38 0.92 C0.15 1.79, -0.39 4, -0.68 4.39 M-0.88 0.36 C-1.37 0.94, -2.19 1.9, -1.89 2.56" stroke="#000000" stroke-width="1" fill="none"></path></g></g><g stroke-linecap="round"><g transform="translate(829.8178140301627 527.7233835499674) rotate(0 -1.4968064002007395 1.1387366584270922)"><path d="M0.92 -0.5 C0.51 -0.04, -2.37 2.42, -3.26 3.17 M-0.06 -1.81 C-0.5 -1.28, -3.02 2.93, -3.91 4.09" stroke="#000000" stroke-width="1" fill="none"></path></g></g><g stroke-linecap="round"><g transform="translate(829.2923776220441 528.1283682817623) rotate(0 2.0369201932417127 2.4555482645719735)"><path d="M-0.5 0.56 C-0.15 1.05, 1.85 3.18, 2.48 3.87 M1.44 -0.19 C2.1 0.37, 4.42 4.06, 4.58 5.11" stroke="#000000" stroke-width="1" fill="none"></path></g></g><g transform="translate(818.1791790403881 538.3405234117254) rotate(0 12.928853186174365 6.2157948010453765)"><text x="0" y="8.43158960209073" font-family="Virgil, Segoe UI Emoji" font-size="9.945271681672573px" fill="#000000" text-anchor="start" style="white-space: pre;" direction="ltr">client</text></g><g stroke-linecap="round"><g transform="translate(805.3211364746094 538.7334526590699) rotate(0 -134.25938285606912 -1.2612261836544576)"><path d="M-0.38 -0.8 C-45.28 -1.01, -224.41 -1.7, -268.97 -2.22 M1.61 1.39 C-43.51 0.93, -225.19 -3.16, -270.13 -3.91" stroke="#000000" stroke-width="1" fill="none"></path></g><g transform="translate(805.3211364746094 538.7334526590699) rotate(0 -134.25938285606912 -1.2612261836544576)"><path d="M-243.08 -14.29 C-249.93 -9.09, -262.31 -5.39, -268.8 -3.18 M-242.61 -13.9 C-249.97 -9.47, -260.72 -6.94, -270.62 -4.77" stroke="#000000" stroke-width="1" fill="none"></path></g><g transform="translate(805.3211364746094 538.7334526590699) rotate(0 -134.25938285606912 -1.2612261836544576)"><path d="M-243.49 6.23 C-250.04 4.58, -262.28 1.42, -268.8 -3.18 M-243.02 6.62 C-250.06 4.46, -260.67 0.39, -270.62 -4.77" stroke="#000000" stroke-width="1" fill="none"></path></g></g><g transform="translate(612.8405456542969 546.2745971679688) rotate(0 99 19.5)"><text x="0" y="15.5" font-family="Cascadia, Segoe UI Emoji" font-size="16px" fill="#000000" text-anchor="start" style="white-space: pre;" direction="ltr">Read-only queries</text><text x="0" y="35" font-family="Cascadia, Segoe UI Emoji" font-size="16px" fill="#000000" text-anchor="start" style="white-space: pre;" direction="ltr">(select * form users)</text></g><g transform="translate(277.3671569824219 393.38897705078125) rotate(0 51.5 19.5)"><text x="0" y="15.5" font-family="Cascadia, Segoe UI Emoji" font-size="16px" fill="#000000" text-anchor="start" style="white-space: pre;" direction="ltr">Replication</text><text x="0" y="35" font-family="Cascadia, Segoe UI Emoji" font-size="16px" fill="#000000" text-anchor="start" style="white-space: pre;" direction="ltr">Streams</text></g></svg>