<svg version="1.1" xmlns="http://www.w3.org/2000/svg" viewBox="0 0 335.41241455078125 353.5226745605469" width="670.8248291015625" height="707.0453491210938">
  <!-- svg-source:excalidraw -->
  
  <defs>
    <style>
      @font-face {
        font-family: "Virgil";
        src: url("https://excalidraw.com/Virgil.woff2");
      }
      @font-face {
        font-family: "Cascadia";
        src: url("https://excalidraw.com/Cascadia.woff2");
      }
    </style>
  </defs>
  <rect x="0" y="0" width="335.41241455078125" height="353.5226745605469" fill="#ffffff"></rect><g stroke-linecap="round" transform="translate(110.21685791015625 10) rotate(0 57.5 30)"><path d="M56.68 0.97 C66.73 0.64, 80.36 2.29, 89.1 4.97 C97.85 7.64, 105.08 12.23, 109.18 17.02 C113.28 21.82, 115.13 28.32, 113.71 33.76 C112.3 39.19, 107.27 45.39, 100.68 49.63 C94.09 53.86, 84.04 57.59, 74.18 59.19 C64.31 60.78, 51.38 60.71, 41.47 59.2 C31.56 57.68, 21.6 54.2, 14.72 50.11 C7.83 46.02, 1.64 40.1, 0.14 34.65 C-1.36 29.2, 1.36 22.54, 5.7 17.43 C10.04 12.32, 16.6 6.94, 26.16 4 C35.73 1.06, 56.32 0.26, 63.09 -0.19 C69.87 -0.65, 66.84 0.74, 66.81 1.25 M51.69 1.12 C61.26 0.17, 73.46 0.09, 82.42 2.54 C91.38 4.99, 100.24 11.31, 105.44 15.81 C110.65 20.31, 113.86 24.32, 113.67 29.55 C113.48 34.79, 109.84 42.75, 104.31 47.22 C98.78 51.69, 89.86 54.08, 80.51 56.37 C71.16 58.67, 58.71 61.53, 48.21 61 C37.71 60.47, 25 57.02, 17.48 53.21 C9.96 49.39, 5.76 43.36, 3.08 38.11 C0.41 32.85, -1.35 26.87, 1.41 21.69 C4.17 16.52, 11.6 10.79, 19.63 7.07 C27.66 3.35, 44.41 0.6, 49.61 -0.61 C54.81 -1.82, 50.43 -0.72, 50.83 -0.19" stroke="#000000" stroke-width="1" fill="none"></path></g><g transform="translate(115.21685791015625 30) rotate(0 52.5 10)"><text x="52.5" y="14" font-family="Virgil, Segoe UI Emoji" font-size="16px" fill="#000000" text-anchor="middle" style="white-space: pre;" direction="ltr">Reliability</text></g><g transform="translate(56.96173095703125 89.968505859375) rotate(0 94.611328125 13.298781061746979)"><text x="0" y="11.298781061746986" font-family="Cascadia, Segoe UI Emoji" font-size="11.122088971195444px" fill="#000000" text-anchor="start" style="white-space: pre;" direction="ltr">Continuing to work correctly,</text><text x="0" y="24.597562123493972" font-family="Cascadia, Segoe UI Emoji" font-size="11.122088971195444px" fill="#000000" text-anchor="start" style="white-space: pre;" direction="ltr">even when things go wrong.</text></g><g transform="translate(56.59747314453125 125.05157470703125) rotate(0 134.407470703125 25.384461779282674)"><text x="0" y="10.692230889641344" font-family="Cascadia, Segoe UI Emoji" font-size="10.414138165859566px" fill="#000000" text-anchor="start" style="white-space: pre;" direction="ltr">Things that go wrong are called faults,</text><text x="0" y="23.384461779282688" font-family="Cascadia, Segoe UI Emoji" font-size="10.414138165859566px" fill="#000000" text-anchor="start" style="white-space: pre;" direction="ltr">and systems that anticipate faults and</text><text x="0" y="36.07669266892403" font-family="Cascadia, Segoe UI Emoji" font-size="10.414138165859566px" fill="#000000" text-anchor="start" style="white-space: pre;" direction="ltr">can cope with them are called fault-tolerant</text><text x="0" y="48.768923558565376" font-family="Cascadia, Segoe UI Emoji" font-size="10.414138165859566px" fill="#000000" text-anchor="start" style="white-space: pre;" direction="ltr">or resilient.</text></g><g stroke-linecap="round" transform="translate(144.010498046875 222.69985961914062) rotate(0 46.5 21)"><path d="M44.17 0.8 C52.6 0.13, 63.65 1.04, 71.12 3.04 C78.59 5.03, 85.55 8.82, 89 12.78 C92.44 16.73, 93.93 22.6, 91.81 26.75 C89.69 30.91, 83.47 35.05, 76.26 37.71 C69.04 40.37, 57.8 42.47, 48.52 42.72 C39.23 42.98, 28.17 41.66, 20.52 39.23 C12.87 36.8, 5.69 32.04, 2.62 28.14 C-0.45 24.25, -0.31 19.68, 2.1 15.83 C4.51 11.98, 8.65 7.75, 17.07 5.05 C25.5 2.34, 45.48 0.35, 52.66 -0.39 C59.85 -1.14, 60.3 0.09, 60.17 0.57 M36.21 -0.45 C44.35 -1.56, 54.92 -0.39, 63.03 1.53 C71.15 3.45, 79.84 7.33, 84.9 11.08 C89.96 14.82, 93.93 19.89, 93.41 24 C92.89 28.11, 87.6 32.9, 81.79 35.72 C75.98 38.54, 67.43 40.35, 58.56 40.92 C49.68 41.5, 36.97 40.88, 28.53 39.19 C20.09 37.49, 12.71 33.91, 7.94 30.78 C3.16 27.64, -0.44 24.22, -0.13 20.36 C0.17 16.5, 3.72 10.81, 9.76 7.62 C15.8 4.44, 31.85 2.12, 36.09 1.24 C40.32 0.36, 35.15 2.04, 35.18 2.37" stroke="#000000" stroke-width="1" fill="none"></path></g><g transform="translate(149.010498046875 233.69985961914062) rotate(0 41.5 10)"><text x="41.5" y="14" font-family="Virgil, Segoe UI Emoji" font-size="16px" fill="#000000" text-anchor="middle" style="white-space: pre;" direction="ltr">Faults</text></g><g stroke-linecap="round" transform="translate(10 190.59097290039062) rotate(0 56 19.5)"><path d="M45.3 0.59 C54.5 -0.36, 67.67 -0.6, 77.21 0.52 C86.76 1.65, 96.86 4.32, 102.58 7.34 C108.3 10.36, 111.2 14.85, 111.55 18.66 C111.9 22.47, 109.54 27.07, 104.69 30.19 C99.83 33.31, 91.41 35.9, 82.41 37.37 C73.42 38.83, 60.91 39.45, 50.71 38.95 C40.52 38.46, 29.26 36.46, 21.25 34.4 C13.24 32.35, 5.86 30, 2.67 26.6 C-0.52 23.2, -0.41 17.38, 2.11 14 C4.62 10.62, 10.07 8.69, 17.76 6.33 C25.45 3.96, 42.49 0.75, 48.24 -0.18 C53.98 -1.12, 51.96 0.28, 52.24 0.7 M48.53 0.14 C58.14 -0.84, 70.82 -0.48, 79.91 0.96 C89 2.41, 97.67 5.58, 103.07 8.82 C108.47 12.05, 112.31 16.94, 112.33 20.38 C112.36 23.81, 108.57 26.56, 103.23 29.42 C97.9 32.28, 89.5 36.14, 80.3 37.55 C71.1 38.97, 57.85 38.41, 48.04 37.93 C38.23 37.44, 29 36.7, 21.43 34.64 C13.86 32.57, 5.72 28.9, 2.62 25.54 C-0.48 22.19, 0.36 17.91, 2.84 14.5 C5.32 11.09, 9.97 7.48, 17.5 5.09 C25.02 2.69, 43.23 0.9, 47.98 0.13 C52.74 -0.64, 45.95 -0.12, 46.05 0.45" stroke="#000000" stroke-width="1" fill="none"></path></g><g transform="translate(15 200.09097290039062) rotate(0 51 10)"><text x="51" y="14" font-family="Virgil, Segoe UI Emoji" font-size="16px" fill="#000000" text-anchor="middle" style="white-space: pre;" direction="ltr">HW Faults</text></g><g stroke-linecap="round" transform="translate(26.553436279296875 274.9726867675781) rotate(0 56 19.5)"><path d="M58.31 0.48 C67.84 0.39, 78.34 1.79, 86.71 3.62 C95.09 5.45, 104.52 8.2, 108.55 11.47 C112.57 14.75, 112.67 19.64, 110.84 23.27 C109.02 26.89, 104.29 30.76, 97.58 33.22 C90.86 35.68, 80.39 37.18, 70.57 38.03 C60.76 38.89, 48.17 39.4, 38.68 38.36 C29.19 37.32, 19.84 34.64, 13.62 31.8 C7.4 28.96, 2.61 24.77, 1.34 21.31 C0.07 17.84, 1.69 13.95, 6 11 C10.32 8.05, 17.47 5.44, 27.23 3.61 C36.99 1.77, 57.14 0.36, 64.57 0 C71.99 -0.35, 71.98 1.22, 71.78 1.48 M81.96 2.99 C90.84 4.07, 99.71 5.55, 104.72 8.6 C109.74 11.65, 112.59 17.78, 112.05 21.27 C111.51 24.76, 107.38 26.73, 101.47 29.54 C95.56 32.35, 85.71 36.41, 76.59 38.13 C67.46 39.84, 56.8 40.34, 46.7 39.84 C36.6 39.33, 23.45 37.75, 15.99 35.09 C8.53 32.43, 4.07 27.71, 1.94 23.87 C-0.18 20.03, -0.23 15.15, 3.25 12.05 C6.73 8.95, 14.93 7.33, 22.83 5.27 C30.73 3.22, 40.92 0.1, 50.65 -0.28 C60.39 -0.66, 76.04 2.39, 81.26 3.01 C86.49 3.63, 82.6 3.5, 82.02 3.44" stroke="#000000" stroke-width="1" fill="none"></path></g><g transform="translate(31.553436279296875 284.4726867675781) rotate(0 51 10)"><text x="51" y="14" font-family="Virgil, Segoe UI Emoji" font-size="16px" fill="#000000" text-anchor="middle" style="white-space: pre;" direction="ltr">SW Faults</text></g><g stroke-linecap="round" transform="translate(160.87396240234375 293.5226745605469) rotate(0 56 25)"><path d="M80.22 2.85 C89.2 4.3, 98.59 8.53, 104.01 12.3 C109.44 16.07, 113.1 20.97, 112.77 25.46 C112.43 29.96, 107.78 35.59, 102.01 39.25 C96.24 42.91, 87.49 45.55, 78.13 47.44 C68.78 49.33, 55.85 51.25, 45.88 50.59 C35.91 49.93, 25.61 46.61, 18.3 43.49 C10.99 40.38, 4.59 36.41, 2.02 31.91 C-0.55 27.42, -0.23 20.8, 2.86 16.51 C5.96 12.23, 12.83 9.08, 20.6 6.21 C28.37 3.34, 38.42 -0.42, 49.5 -0.69 C60.58 -0.96, 79.78 3.23, 87.09 4.59 C94.39 5.95, 93.98 7.02, 93.33 7.47 M61.93 1.6 C71.77 1.75, 85.18 3.17, 93.03 5.75 C100.89 8.33, 106.11 12.65, 109.08 17.09 C112.05 21.54, 113.3 28.26, 110.84 32.45 C108.38 36.64, 102.18 39.22, 94.32 42.23 C86.46 45.24, 73.84 49.74, 63.68 50.53 C53.51 51.32, 42.61 49.07, 33.34 46.99 C24.07 44.91, 13.86 41.47, 8.06 38.05 C2.26 34.63, -1.43 30.97, -1.47 26.46 C-1.51 21.95, 2.36 14.77, 7.82 10.99 C13.27 7.2, 21.88 5.66, 31.27 3.74 C40.66 1.81, 58.74 0.06, 64.18 -0.56 C69.63 -1.17, 64.44 -0.36, 63.94 0.04" stroke="#000000" stroke-width="1" fill="none"></path></g><g transform="translate(165.87396240234375 298.5226745605469) rotate(0 51 20)"><text x="51" y="14" font-family="Virgil, Segoe UI Emoji" font-size="16px" fill="#000000" text-anchor="middle" style="white-space: pre;" direction="ltr">Human </text><text x="51" y="34" font-family="Virgil, Segoe UI Emoji" font-size="16px" fill="#000000" text-anchor="middle" style="white-space: pre;" direction="ltr">Errors</text></g><g stroke-linecap="round"><g transform="translate(171.70599365234375 70.7042236328125) rotate(0 2.8361773658124605 72.99272884503007)"><path d="M0.05 -1.05 C1.2 23.49, 5.96 122.27, 7.06 147.04 M-1.39 1.01 C-0.4 25.23, 4.97 121.14, 6.16 145.27" stroke="#000000" stroke-width="1" fill="none"></path></g><g transform="translate(171.70599365234375 70.7042236328125) rotate(0 2.8361773658124605 72.99272884503007)"><path d="M-7.33 117.8 C-0.82 125.77, 3.7 135.33, 7.33 146.73 M-5.21 118.32 C-2.35 124.32, -0.19 130.6, 6.66 144.31" stroke="#000000" stroke-width="1" fill="none"></path></g><g transform="translate(171.70599365234375 70.7042236328125) rotate(0 2.8361773658124605 72.99272884503007)"><path d="M13.17 116.72 C13.26 125.03, 11.35 134.93, 7.33 146.73 M15.29 117.23 C13.04 123.57, 10.1 130.12, 6.66 144.31" stroke="#000000" stroke-width="1" fill="none"></path></g></g><g stroke-linecap="round"><g transform="translate(176.6185473211567 216.821841908328) rotate(0 -26.738652794596334 -11.610145477793282)"><path d="M-0.55 1.07 C-9.43 -2.51, -45.39 -18.41, -54.29 -22.43 M1.36 0.59 C-7.53 -3.27, -45.6 -20.57, -54.84 -24.29" stroke="#000000" stroke-width="1" fill="none"></path></g><g transform="translate(176.6185473211567 216.821841908328) rotate(0 -26.738652794596334 -11.610145477793282)"><path d="M-23.29 -21.26 C-30.72 -21.17, -38.16 -25.43, -53.63 -24.62 M-24.1 -22.93 C-31.7 -23.08, -36.83 -23.99, -54.29 -23.44" stroke="#000000" stroke-width="1" fill="none"></path></g><g transform="translate(176.6185473211567 216.821841908328) rotate(0 -26.738652794596334 -11.610145477793282)"><path d="M-31.38 -2.55 C-36.91 -6.48, -42.58 -14.82, -53.63 -24.62 M-32.2 -4.21 C-37.96 -8.36, -41.38 -13.25, -54.29 -23.44" stroke="#000000" stroke-width="1" fill="none"></path></g></g><g stroke-linecap="round"><g transform="translate(225.083984375 259.3939208984375) rotate(0 -31.28238287467974 24.525271347812378)"><path d="M0.52 0.32 C-10.03 8.33, -52.59 40.3, -63.08 48.63 M-0.67 -0.56 C-10.84 7.51, -50.3 41.47, -60.72 49.61" stroke="#000000" stroke-width="1" fill="none"></path></g><g transform="translate(225.083984375 259.3939208984375) rotate(0 -31.28238287467974 24.525271347812378)"><path d="M-44.97 22.65 C-51.95 31.99, -53.99 38.65, -61.58 47.83 M-46.31 24.67 C-50.11 29.79, -52.94 36.82, -61.4 49.97" stroke="#000000" stroke-width="1" fill="none"></path></g><g transform="translate(225.083984375 259.3939208984375) rotate(0 -31.28238287467974 24.525271347812378)"><path d="M-31.91 38.48 C-43.1 42.87, -49.27 44.52, -61.58 47.83 M-33.25 40.5 C-40.65 41.53, -46.95 44.36, -61.4 49.97" stroke="#000000" stroke-width="1" fill="none"></path></g></g><g stroke-linecap="round"><g transform="translate(142.29095675015287 248.9168033349266) rotate(0 -27.58019567675342 10.105373960950118)"><path d="M0.99 -0.07 C-8.42 3.52, -45.89 16.83, -55.44 20.43 M0.05 -1.15 C-9.57 2.63, -46.6 17.37, -56.15 21.36" stroke="#000000" stroke-width="1" fill="none"></path></g><g transform="translate(142.29095675015287 248.9168033349266) rotate(0 -27.58019567675342 10.105373960950118)"><path d="M-34.04 2.02 C-44.63 8.55, -51.39 16.52, -55.45 19.59 M-33.24 2.06 C-41.45 8.41, -50.3 15.89, -56.16 20.95" stroke="#000000" stroke-width="1" fill="none"></path></g><g transform="translate(142.29095675015287 248.9168033349266) rotate(0 -27.58019567675342 10.105373960950118)"><path d="M-26.32 21.01 C-39.72 20.27, -49.46 20.9, -55.45 19.59 M-25.52 21.04 C-36.5 20.56, -48.14 21.19, -56.16 20.95" stroke="#000000" stroke-width="1" fill="none"></path></g></g></svg>