<svg version="1.1" xmlns="http://www.w3.org/2000/svg" viewBox="0 0 960.9031066894531 484.0611572265625" width="1921.8062133789062" height="968.122314453125">
  <!-- svg-source:excalidraw -->
  
  <defs>
    <style>
      @font-face {
        font-family: "Virgil";
        src: url("https://excalidraw.com/Virgil.woff2");
      }
      @font-face {
        font-family: "Cascadia";
        src: url("https://excalidraw.com/Cascadia.woff2");
      }
    </style>
  </defs>
  <rect x="0" y="0" width="960.9031066894531" height="484.0611572265625" fill="#ffffff"></rect><g stroke-linecap="round" transform="translate(140.48556518554688 105.83480834960938) rotate(0 68.5 29.5)"><path d="M69.76 -0.8 C80.4 -1.05, 93.5 1.96, 103.23 4.55 C112.95 7.13, 122.52 10.48, 128.1 14.73 C133.67 18.99, 136.99 24.99, 136.67 30.08 C136.35 35.18, 131.99 41.13, 126.18 45.31 C120.36 49.5, 111.76 53.05, 101.8 55.18 C91.85 57.32, 77.86 58.06, 66.43 58.1 C55 58.14, 43.02 57.73, 33.2 55.44 C23.38 53.15, 12.89 48.92, 7.52 44.36 C2.15 39.8, 0.55 33.2, 0.99 28.07 C1.43 22.94, 4.27 17.72, 10.16 13.57 C16.05 9.43, 24.91 5.39, 36.32 3.19 C47.74 0.98, 70.36 0.67, 78.66 0.32 C86.96 -0.03, 86.34 0.61, 86.12 1.09 M88.35 1 C98.97 1.71, 112.18 5.44, 119.96 8.99 C127.74 12.53, 132.62 17.39, 135.02 22.28 C137.42 27.18, 137.65 33.53, 134.36 38.37 C131.07 43.21, 123.63 47.79, 115.27 51.33 C106.91 54.87, 95.53 58.4, 84.18 59.62 C72.84 60.84, 58.29 60.1, 47.19 58.64 C36.1 57.19, 25.09 54.9, 17.61 50.9 C10.13 46.89, 4.68 39.46, 2.31 34.61 C-0.07 29.76, 0.29 26.25, 3.36 21.8 C6.44 17.36, 12.43 11.33, 20.76 7.96 C29.08 4.59, 41.95 2.92, 53.31 1.6 C64.66 0.27, 82.91 -0.19, 88.89 0 C94.87 0.19, 89.43 1.98, 89.18 2.75" stroke="#000000" stroke-width="1" fill="none"></path></g><g transform="translate(145.48556518554688 125.33480834960938) rotate(0 63.5 10)"><text x="63.5" y="14" font-family="Virgil, Segoe UI Emoji" font-size="16px" fill="#000000" text-anchor="middle" style="white-space: pre;" direction="ltr">Maintainability</text></g><g transform="translate(106.26870727539062 10) rotate(0 286 39)"><text x="0" y="15.5" font-family="Cascadia, Segoe UI Emoji" font-size="16px" fill="#000000" text-anchor="start" style="white-space: pre;" direction="ltr">Majority of software cost is in it's</text><text x="0" y="35" font-family="Cascadia, Segoe UI Emoji" font-size="16px" fill="#000000" text-anchor="start" style="white-space: pre;" direction="ltr">ongoing maintenance </text><text x="0" y="54.5" font-family="Cascadia, Segoe UI Emoji" font-size="16px" fill="#000000" text-anchor="start" style="white-space: pre;" direction="ltr">-  bug fixes, keeping it operational, tech debt, new features</text><text x="0" y="74" font-family="Cascadia, Segoe UI Emoji" font-size="16px" fill="#000000" text-anchor="start" style="white-space: pre;" direction="ltr">- adapting to new platforms, modifying for new user cases </text></g><g stroke-linecap="round" transform="translate(175.67758178710938 218.526123046875) rotate(0 68.5 29.5)"><path d="M56.9 -0.37 C67.64 -1.56, 82.34 -0.48, 93.04 1.23 C103.75 2.93, 113.79 6.02, 121.13 9.88 C128.47 13.74, 135.12 19.3, 137.08 24.38 C139.04 29.46, 137.03 35.79, 132.91 40.34 C128.78 44.88, 121.3 48.7, 112.34 51.63 C103.37 54.57, 90.49 57.21, 79.12 57.95 C67.74 58.7, 54.7 57.61, 44.09 56.11 C33.48 54.6, 22.67 52.68, 15.44 48.92 C8.21 45.16, 2.4 38.48, 0.71 33.55 C-0.97 28.61, 1.1 23.72, 5.32 19.3 C9.54 14.89, 14.97 10.24, 26.05 7.07 C37.12 3.9, 62.09 1.15, 71.76 0.28 C81.43 -0.59, 84.3 1.41, 84.08 1.85 M98.55 2.33 C108.94 4.34, 119.96 9.72, 126.17 14.01 C132.37 18.3, 135.46 23.36, 135.79 28.09 C136.13 32.82, 133.35 38.01, 128.15 42.39 C122.96 46.78, 113.76 51.44, 104.64 54.41 C95.52 57.38, 84.79 59.93, 73.44 60.22 C62.08 60.51, 46.78 58.53, 36.51 56.16 C26.25 53.78, 17.66 49.92, 11.82 45.97 C5.99 42.03, 2.03 37.2, 1.49 32.49 C0.94 27.77, 3.65 22.17, 8.54 17.66 C13.43 13.16, 21.39 8.14, 30.82 5.45 C40.25 2.76, 53.5 1.7, 65.12 1.51 C76.74 1.32, 95.14 3.73, 100.56 4.28 C105.98 4.83, 98.57 4.68, 97.64 4.81" stroke="#000000" stroke-width="1" fill="none"></path></g><g transform="translate(180.67758178710938 238.026123046875) rotate(0 63.5 10)"><text x="63.5" y="14" font-family="Virgil, Segoe UI Emoji" font-size="16px" fill="#000000" text-anchor="middle" style="white-space: pre;" direction="ltr">Operability</text></g><g transform="translate(73.2958984375 176.56149291992188) rotate(0 145.5 19.5)"><text x="0" y="15.5" font-family="Cascadia, Segoe UI Emoji" font-size="16px" fill="#000000" text-anchor="start" style="white-space: pre;" direction="ltr">Make it easy for operations to </text><text x="0" y="35" font-family="Cascadia, Segoe UI Emoji" font-size="16px" fill="#000000" text-anchor="start" style="white-space: pre;" direction="ltr">keep system running smoothly.</text></g><g stroke-linecap="round" transform="translate(571.2467346191406 123.10519409179688) rotate(0 68.5 29.5)"><path d="M35.43 2.81 C44.39 0.1, 59.31 -0.15, 70.72 -0.01 C82.13 0.13, 94.15 1.16, 103.89 3.64 C113.63 6.13, 123.66 10.59, 129.16 14.91 C134.67 19.22, 137.46 24.48, 136.92 29.54 C136.39 34.6, 132.03 40.95, 125.95 45.27 C119.87 49.59, 110.47 53.22, 100.42 55.44 C90.36 57.66, 76.93 58.87, 65.62 58.61 C54.3 58.34, 42.17 56.35, 32.53 53.85 C22.9 51.35, 13.27 47.94, 7.81 43.62 C2.35 39.3, -0.78 32.84, -0.24 27.94 C0.3 23.04, 4.42 18.53, 11.03 14.22 C17.64 9.91, 34.21 3.96, 39.42 2.08 C44.63 0.19, 41.9 2.22, 42.3 2.92 M80.69 1.56 C91.75 2.06, 104.43 3.62, 112.96 6.68 C121.49 9.74, 128.09 15.16, 131.89 19.92 C135.7 24.68, 137.66 30.66, 135.81 35.25 C133.95 39.84, 127.78 43.85, 120.75 47.48 C113.72 51.1, 104.26 55, 93.61 56.99 C82.96 58.98, 68.24 60.1, 56.85 59.43 C45.47 58.76, 34.21 56.36, 25.32 52.97 C16.43 49.57, 7.38 43.6, 3.52 39.04 C-0.33 34.48, 0 30.13, 2.17 25.59 C4.35 21.04, 9.4 15.61, 16.56 11.78 C23.73 7.96, 34.67 4.66, 45.17 2.62 C55.67 0.58, 73.61 -0.14, 79.57 -0.46 C85.54 -0.78, 80.91 0.19, 80.94 0.68" stroke="#000000" stroke-width="1" fill="none"></path></g><g transform="translate(576.2467346191406 142.60519409179688) rotate(0 63.5 10)"><text x="63.5" y="14" font-family="Virgil, Segoe UI Emoji" font-size="16px" fill="#000000" text-anchor="middle" style="white-space: pre;" direction="ltr">Simplicity</text></g><g transform="translate(455.6105041503906 185.06539916992188) rotate(0 225 19.5)"><text x="0" y="15.5" font-family="Cascadia, Segoe UI Emoji" font-size="16px" fill="#000000" text-anchor="start" style="white-space: pre;" direction="ltr">Make it easy for new engineers to understand the</text><text x="0" y="35" font-family="Cascadia, Segoe UI Emoji" font-size="16px" fill="#000000" text-anchor="start" style="white-space: pre;" direction="ltr">system - removing complexity as possible.</text></g><g stroke-linecap="round" transform="translate(608.9951934814453 288.13787841796875) rotate(0 68.5 29.5)"><path d="M54.11 1.42 C64.43 -0.07, 78.11 -0.21, 89.02 0.99 C99.93 2.19, 111.88 4.89, 119.57 8.6 C127.27 12.31, 132.95 18.37, 135.18 23.26 C137.42 28.14, 136.25 33.32, 132.96 37.91 C129.68 42.5, 123.78 47.29, 115.5 50.82 C107.22 54.36, 94.55 57.9, 83.3 59.12 C72.05 60.35, 58.78 59.61, 48.02 58.17 C37.27 56.73, 26.42 54.15, 18.77 50.49 C11.12 46.83, 4.82 41.14, 2.11 36.2 C-0.61 31.25, -0.76 25.38, 2.48 20.81 C5.73 16.24, 11.66 12.22, 21.59 8.76 C31.53 5.31, 53.87 1.5, 62.1 0.1 C70.33 -1.3, 70.75 -0.19, 70.99 0.38 M94.75 3.07 C105.03 4.38, 114.53 8.65, 121.57 12.2 C128.62 15.76, 135.04 19.51, 137.03 24.41 C139.03 29.31, 137.72 36.86, 133.53 41.61 C129.33 46.36, 121.01 50.25, 111.86 52.89 C102.71 55.54, 90.2 56.72, 78.61 57.48 C67.01 58.23, 52.94 59.18, 42.27 57.42 C31.61 55.66, 21.7 50.81, 14.63 46.91 C7.55 43, 1.43 38.51, -0.18 33.98 C-1.79 29.45, 0.8 24.21, 4.97 19.74 C9.15 15.26, 16.05 10.3, 24.84 7.15 C33.64 4, 46.43 1.86, 57.73 0.84 C69.04 -0.18, 86.9 0.92, 92.66 1.02 C98.41 1.12, 92.7 1.03, 92.27 1.45" stroke="#000000" stroke-width="1" fill="none"></path></g><g transform="translate(613.9951934814453 307.63787841796875) rotate(0 63.5 10)"><text x="63.5" y="14" font-family="Virgil, Segoe UI Emoji" font-size="16px" fill="#000000" text-anchor="middle" style="white-space: pre;" direction="ltr">Evolvability</text></g><g transform="translate(528.9031066894531 358.66156005859375) rotate(0 211 19.5)"><text x="0" y="15.5" font-family="Cascadia, Segoe UI Emoji" font-size="16px" fill="#000000" text-anchor="start" style="white-space: pre;" direction="ltr">Make it easy to make changes to system in the</text><text x="0" y="35" font-family="Cascadia, Segoe UI Emoji" font-size="16px" fill="#000000" text-anchor="start" style="white-space: pre;" direction="ltr">future, adapting to new user cases.</text></g><g stroke-linecap="round" transform="translate(10 230.26937866210938) rotate(0 68.5 29.5)"><path d="M56.19 -0.12 C66.5 -1.62, 81.32 -0.98, 92.01 0.98 C102.7 2.94, 113.14 7.73, 120.34 11.61 C127.53 15.49, 133.24 19.45, 135.17 24.27 C137.1 29.09, 135.63 35.81, 131.91 40.53 C128.2 45.26, 121.61 49.53, 112.86 52.61 C104.11 55.68, 90.71 58.1, 79.4 58.97 C68.09 59.84, 55.68 59.64, 44.99 57.85 C34.31 56.05, 22.78 52.14, 15.28 48.22 C7.78 44.29, 1.98 39.08, -0.01 34.27 C-2.01 29.47, -0.9 23.82, 3.3 19.37 C7.51 14.91, 15.8 10.64, 25.23 7.55 C34.65 4.46, 53.5 1.97, 59.84 0.84 C66.19 -0.28, 63.16 0.47, 63.3 0.81 M68.84 -0.95 C79.48 -1.38, 92.07 1.33, 101.96 3.91 C111.85 6.5, 122.45 10.37, 128.19 14.56 C133.93 18.76, 136.46 24.33, 136.41 29.08 C136.37 33.84, 133.51 38.86, 127.91 43.07 C122.32 47.28, 112.59 51.74, 102.85 54.33 C93.12 56.92, 80.93 58.65, 69.49 58.61 C58.05 58.56, 44.3 56.29, 34.21 54.03 C24.11 51.77, 14.55 48.91, 8.92 45.03 C3.3 41.15, 0.34 35.94, 0.45 30.75 C0.55 25.55, 3.94 18.45, 9.54 13.88 C15.15 9.31, 24.42 5.84, 34.09 3.31 C43.76 0.78, 62.01 -1.09, 67.57 -1.3 C73.13 -1.52, 67.47 1.5, 67.45 2.03" stroke="#000000" stroke-width="1" fill="none"></path></g><g transform="translate(15 239.76937866210938) rotate(0 63.5 20)"><text x="63.5" y="14" font-family="Virgil, Segoe UI Emoji" font-size="16px" fill="#000000" text-anchor="middle" style="white-space: pre;" direction="ltr">Visibility/ </text><text x="63.5" y="34" font-family="Virgil, Segoe UI Emoji" font-size="16px" fill="#000000" text-anchor="middle" style="white-space: pre;" direction="ltr">monitoring</text></g><g stroke-linecap="round" transform="translate(43.665557861328125 337.1531982421875) rotate(0 68.5 29.5)"><path d="M99.63 3.92 C109.93 5.64, 119.44 8.79, 125.67 12.89 C131.9 17, 136.29 23.71, 137.02 28.55 C137.74 33.39, 134.99 37.57, 130.01 41.94 C125.03 46.31, 116.65 51.93, 107.15 54.78 C97.64 57.63, 84.36 58.78, 72.99 59.06 C61.63 59.35, 49.24 58.77, 38.97 56.48 C28.69 54.19, 17.97 49.6, 11.34 45.32 C4.71 41.04, -0.08 35.53, -0.82 30.8 C-1.55 26.07, 1.8 21.4, 6.91 16.94 C12.03 12.48, 20.48 6.83, 29.89 4.04 C39.29 1.26, 50.89 0.13, 63.35 0.22 C75.81 0.31, 96.87 3.33, 104.64 4.57 C112.41 5.8, 110.57 7.33, 109.97 7.64 M49 2.11 C59.6 0.36, 75.65 0.68, 86.88 1.81 C98.12 2.93, 108.55 5.64, 116.41 8.86 C124.26 12.07, 130.69 16.6, 134 21.1 C137.32 25.61, 139.26 30.8, 136.27 35.89 C133.28 40.98, 124.21 48.02, 116.06 51.66 C107.91 55.3, 98.06 56.85, 87.38 57.71 C76.7 58.57, 62.88 57.86, 51.97 56.8 C41.06 55.74, 30.08 54.47, 21.93 51.37 C13.78 48.27, 6.31 42.84, 3.07 38.2 C-0.18 33.56, -0.2 28.6, 2.48 23.53 C5.15 18.46, 11.09 11.68, 19.12 7.77 C27.14 3.85, 45.26 1.24, 50.63 0.05 C56.01 -1.13, 51.08 -0.17, 51.35 0.66" stroke="#000000" stroke-width="1" fill="none"></path></g><g transform="translate(48.665557861328125 346.6531982421875) rotate(0 63.5 20)"><text x="63.5" y="14" font-family="Virgil, Segoe UI Emoji" font-size="16px" fill="#000000" text-anchor="middle" style="white-space: pre;" direction="ltr">Automation/ </text><text x="63.5" y="34" font-family="Virgil, Segoe UI Emoji" font-size="16px" fill="#000000" text-anchor="middle" style="white-space: pre;" direction="ltr">tools</text></g><g stroke-linecap="round" transform="translate(378.0040283203125 331.0623779296875) rotate(0 68.5 45)"><path d="M46.41 2.78 C55.68 -0.1, 68.11 -0.7, 78.41 0.38 C88.72 1.45, 99.61 4.95, 108.22 9.22 C116.83 13.49, 125.41 19.69, 130.07 26 C134.73 32.32, 136.47 40.46, 136.2 47.13 C135.93 53.8, 133.62 60.09, 128.48 66 C123.34 71.9, 114.11 78.75, 105.35 82.56 C96.6 86.37, 86.27 88.24, 75.96 88.85 C65.66 89.46, 53.47 88.66, 43.51 86.22 C33.55 83.77, 23.11 79.44, 16.21 74.19 C9.32 68.93, 4.45 61.42, 2.16 54.7 C-0.14 47.98, -0.36 40.75, 2.47 33.88 C5.3 27.01, 11.62 18.83, 19.13 13.47 C26.63 8.11, 42.4 3.47, 47.5 1.73 C52.59 0, 49.13 2.21, 49.68 3.07 M99.04 5.5 C108.91 7.98, 119.51 14.13, 125.54 19.56 C131.57 24.99, 133.89 31.24, 135.21 38.06 C136.52 44.89, 136.67 54.01, 133.41 60.49 C130.15 66.96, 123.55 72.33, 115.66 76.94 C107.78 81.55, 96.35 86.09, 86.09 88.14 C75.84 90.19, 64.37 90.56, 54.14 89.22 C43.91 87.87, 32.72 84.4, 24.73 80.07 C16.74 75.75, 10.26 69.72, 6.2 63.26 C2.15 56.81, -0.45 48.59, 0.41 41.34 C1.28 34.09, 5.33 25.55, 11.39 19.77 C17.45 14, 27.67 9.87, 36.77 6.67 C45.87 3.47, 55.42 0.77, 66 0.57 C76.58 0.38, 94.73 4.53, 100.27 5.51 C105.81 6.48, 100.1 5.83, 99.23 6.42" stroke="#000000" stroke-width="1" fill="none"></path></g><g transform="translate(383.0040283203125 336.0623779296875) rotate(0 63.5 40)"><text x="63.5" y="14" font-family="Virgil, Segoe UI Emoji" font-size="16px" fill="#000000" text-anchor="middle" style="white-space: pre;" direction="ltr">Avoid </text><text x="63.5" y="34" font-family="Virgil, Segoe UI Emoji" font-size="16px" fill="#000000" text-anchor="middle" style="white-space: pre;" direction="ltr">dependency on </text><text x="63.5" y="54" font-family="Virgil, Segoe UI Emoji" font-size="16px" fill="#000000" text-anchor="middle" style="white-space: pre;" direction="ltr">individual </text><text x="63.5" y="74" font-family="Virgil, Segoe UI Emoji" font-size="16px" fill="#000000" text-anchor="middle" style="white-space: pre;" direction="ltr">machines</text></g><g stroke-linecap="round" transform="translate(110.68026733398438 413.30853271484375) rotate(0 68.5 29.5)"><path d="M68.69 -0.72 C79.44 -1.28, 91.74 0.72, 101.72 3.17 C111.69 5.62, 122.79 9.7, 128.52 13.98 C134.25 18.26, 136.33 23.7, 136.09 28.85 C135.84 34, 132.57 40.58, 127.05 44.89 C121.53 49.19, 112.77 52.2, 102.96 54.69 C93.14 57.18, 79.55 59.61, 68.16 59.84 C56.77 60.07, 44.31 58.71, 34.6 56.09 C24.89 53.48, 15.76 48.53, 9.91 44.13 C4.06 39.74, -0.4 34.51, -0.49 29.71 C-0.59 24.91, 3.63 19.68, 9.35 15.33 C15.08 10.98, 22.24 6, 33.85 3.6 C45.46 1.2, 69.98 1.27, 79.01 0.93 C88.05 0.59, 88.5 1.08, 88.06 1.58 M91.94 0.63 C102.42 1.82, 114.5 5.07, 121.97 9.21 C129.44 13.34, 134.71 20.27, 136.74 25.42 C138.78 30.57, 138.45 35.8, 134.19 40.09 C129.93 44.38, 120.39 47.91, 111.17 51.16 C101.95 54.4, 90.07 58.75, 78.89 59.59 C67.7 60.42, 54.49 57.79, 44.08 56.14 C33.67 54.49, 23.66 53.21, 16.4 49.66 C9.14 46.12, 2.64 39.89, 0.51 34.85 C-1.62 29.81, -0.14 24.23, 3.65 19.43 C7.44 14.63, 14.39 9.13, 23.23 6.06 C32.08 2.99, 45.3 1.67, 56.72 1.03 C68.13 0.39, 85.93 1.85, 91.73 2.24 C97.52 2.64, 91.74 3.08, 91.5 3.38" stroke="#000000" stroke-width="1" fill="none"></path></g><g transform="translate(115.68026733398438 422.80853271484375) rotate(0 63.5 20)"><text x="63.5" y="14" font-family="Virgil, Segoe UI Emoji" font-size="16px" fill="#000000" text-anchor="middle" style="white-space: pre;" direction="ltr">Documentaiton, </text><text x="63.5" y="34" font-family="Virgil, Segoe UI Emoji" font-size="16px" fill="#000000" text-anchor="middle" style="white-space: pre;" direction="ltr">runbooks</text></g><g stroke-linecap="round" transform="translate(263.1768798828125 404.0611572265625) rotate(0 68.5 35)"><path d="M76.43 0.46 C87.47 0.42, 100.45 3.21, 109.49 6.73 C118.54 10.25, 126.19 16.39, 130.7 21.59 C135.2 26.79, 137.8 32.2, 136.53 37.94 C135.27 43.68, 129.68 51.16, 123.09 56.02 C116.5 60.88, 107.32 64.92, 97 67.12 C86.67 69.32, 72.44 69.69, 61.14 69.23 C49.83 68.76, 38.42 67.7, 29.16 64.32 C19.9 60.95, 10.45 54.3, 5.58 48.98 C0.71 43.65, -1.42 38.25, -0.05 32.36 C1.33 26.47, 7 18.51, 13.82 13.64 C20.64 8.77, 29.07 5.38, 40.87 3.16 C52.67 0.95, 76.35 0.55, 84.63 0.35 C92.92 0.14, 91.11 1.27, 90.57 1.92 M50.24 2.02 C60.52 0.01, 74.8 0.5, 85.92 2.06 C97.04 3.63, 109.02 7.68, 116.94 11.38 C124.87 15.08, 130.6 18.96, 133.47 24.27 C136.33 29.58, 137.05 37.29, 134.16 43.25 C131.26 49.2, 123.88 55.62, 116.12 60.02 C108.35 64.41, 98.21 68.06, 87.56 69.62 C76.91 71.18, 63.52 70.91, 52.22 69.38 C40.92 67.85, 28.31 64.41, 19.78 60.44 C11.25 56.48, 3.77 51.26, 1.01 45.6 C-1.75 39.94, -0.05 32.54, 3.21 26.5 C6.47 20.46, 12.8 13.53, 20.56 9.37 C28.32 5.21, 44.71 2.61, 49.77 1.54 C54.83 0.48, 50.5 2.23, 50.92 2.98" stroke="#000000" stroke-width="1" fill="none"></path></g><g transform="translate(268.1768798828125 409.0611572265625) rotate(0 63.5 30)"><text x="63.5" y="14" font-family="Virgil, Segoe UI Emoji" font-size="16px" fill="#000000" text-anchor="middle" style="white-space: pre;" direction="ltr">Self-healing </text><text x="63.5" y="34" font-family="Virgil, Segoe UI Emoji" font-size="16px" fill="#000000" text-anchor="middle" style="white-space: pre;" direction="ltr">where </text><text x="63.5" y="54" font-family="Virgil, Segoe UI Emoji" font-size="16px" fill="#000000" text-anchor="middle" style="white-space: pre;" direction="ltr">appropriate</text></g><g stroke-linecap="round" transform="translate(374.4570007324219 229.8175048828125) rotate(0 68.5 35)"><path d="M68.76 0.78 C79.68 0.16, 92.66 1.42, 102.47 4.08 C112.28 6.75, 122.04 11.54, 127.63 16.78 C133.22 22.02, 135.89 29.48, 136.01 35.5 C136.12 41.52, 133.76 47.9, 128.33 52.89 C122.91 57.89, 113.49 62.71, 103.44 65.45 C93.39 68.18, 79.38 69.26, 68.05 69.31 C56.71 69.37, 45.2 68.63, 35.4 65.78 C25.61 62.93, 15.2 57.13, 9.3 52.21 C3.4 47.29, 0.06 42.03, 0 36.25 C-0.07 30.46, 3.19 22.73, 8.91 17.48 C14.63 12.24, 23.24 7.74, 34.3 4.76 C45.36 1.79, 67.52 0.09, 75.25 -0.38 C82.99 -0.84, 80.88 1.2, 80.7 1.99 M87.49 2.54 C98.06 3.91, 109.49 7.7, 117.26 11.59 C125.03 15.48, 131.35 20.31, 134.11 25.87 C136.87 31.43, 136.6 39.42, 133.8 44.95 C131 50.48, 125.33 55.04, 117.29 59.05 C109.25 63.06, 96.59 67.18, 85.56 69.01 C74.54 70.84, 62.28 71.69, 51.15 70.02 C40.01 68.34, 27.02 63.29, 18.76 58.96 C10.5 54.62, 4.39 49.39, 1.58 44 C-1.22 38.6, -1.11 32.26, 1.94 26.6 C4.98 20.95, 11.68 14.19, 19.87 10.05 C28.05 5.92, 40.04 3.31, 51.05 1.8 C62.06 0.29, 79.77 0.97, 85.92 0.99 C92.07 1.01, 87.84 1.41, 87.93 1.89" stroke="#000000" stroke-width="1" fill="none"></path></g><g transform="translate(379.4570007324219 244.8175048828125) rotate(0 63.5 20)"><text x="63.5" y="14" font-family="Virgil, Segoe UI Emoji" font-size="16px" fill="#000000" text-anchor="middle" style="white-space: pre;" direction="ltr">Predictable </text><text x="63.5" y="34" font-family="Virgil, Segoe UI Emoji" font-size="16px" fill="#000000" text-anchor="middle" style="white-space: pre;" direction="ltr">behavior</text></g><g stroke-linecap="round"><g transform="translate(220.67849731445312 174.51266479492188) rotate(0 3.4321919359266815 17.23461478354875)"><path d="M-0.36 -1.02 C1.01 4.54, 5.91 28.39, 7.22 34.53 M1.66 1.06 C2.94 7.24, 5.33 29.46, 6.2 35.49" stroke="#000000" stroke-width="1" fill="none"></path></g><g transform="translate(220.67849731445312 174.51266479492188) rotate(0 3.4321919359266815 17.23461478354875)"><path d="M-3.65 19.09 C-1.8 23.11, 1.98 25.72, 7.15 36.98 M-2.16 20.11 C0.24 23.11, 2.37 26.41, 5.79 35.77" stroke="#000000" stroke-width="1" fill="none"></path></g><g transform="translate(220.67849731445312 174.51266479492188) rotate(0 3.4321919359266815 17.23461478354875)"><path d="M8.69 17.54 C7.87 21.86, 8.95 24.82, 7.15 36.98 M10.19 18.56 C9.53 21.94, 8.61 25.62, 5.79 35.77" stroke="#000000" stroke-width="1" fill="none"></path></g></g><g stroke-linecap="round"><g transform="translate(174.4794921875 238.39254760742188) rotate(0 -13.543470793003223 2.2962288714293493)"><path d="M-1.13 -0.14 C-5.67 0.51, -22.53 3.53, -26.64 4.38 M0.47 -1.26 C-4.28 -0.46, -23.13 5.17, -27.56 5.85" stroke="#000000" stroke-width="1" fill="none"></path></g><g transform="translate(174.4794921875 238.39254760742188) rotate(0 -13.543470793003223 2.2962288714293493)"><path d="M-16.41 -1.53 C-20.33 1.91, -23.63 3.34, -27.8 5.99 M-15.73 -1.19 C-19.31 -0.11, -23.1 3.19, -26.98 5.54" stroke="#000000" stroke-width="1" fill="none"></path></g><g transform="translate(174.4794921875 238.39254760742188) rotate(0 -13.543470793003223 2.2962288714293493)"><path d="M-14.27 7.48 C-18.97 7.74, -23.03 6.01, -27.8 5.99 M-13.59 7.82 C-17.81 6.38, -22.19 7.15, -26.98 5.54" stroke="#000000" stroke-width="1" fill="none"></path></g></g><g stroke-linecap="round"><g transform="translate(182.469482421875 266.19427490234375) rotate(0 -16.11257435629608 36.5617956917221)"><path d="M1.06 0.67 C-4.25 12.76, -26.79 61.06, -32.4 73.15 M0.15 -0.03 C-5.25 11.68, -27.68 59.61, -33.28 71.51" stroke="#000000" stroke-width="1" fill="none"></path></g><g transform="translate(182.469482421875 266.19427490234375) rotate(0 -16.11257435629608 36.5617956917221)"><path d="M-29.49 41.86 C-29.59 49.07, -30.16 55.14, -31.9 70.43 M-30.03 42.09 C-31.93 48.29, -31.75 53.93, -32.79 71.33" stroke="#000000" stroke-width="1" fill="none"></path></g><g transform="translate(182.469482421875 266.19427490234375) rotate(0 -16.11257435629608 36.5617956917221)"><path d="M-10.91 50.57 C-15.76 55.74, -21.04 59.61, -31.9 70.43 M-11.45 50.8 C-17.16 55.17, -20.81 59.01, -32.79 71.33" stroke="#000000" stroke-width="1" fill="none"></path></g></g><g stroke-linecap="round"><g transform="translate(194.13961791992188 274.6528015136719) rotate(0 0.5751576915911869 65.0525533551816)"><path d="M-0.33 -0.25 C-0.63 21.63, -0.73 108.21, -0.68 130.19 M1.7 -1.43 C1.69 20.72, 2.07 109.65, 1.65 131.53" stroke="#000000" stroke-width="1" fill="none"></path></g><g transform="translate(194.13961791992188 274.6528015136719) rotate(0 0.5751576915911869 65.0525533551816)"><path d="M-8.87 102.08 C-5.34 114.36, 1.04 124.68, 2.33 133.35 M-8.62 103.94 C-5.09 112.76, -1.8 123.2, 1.28 132.15" stroke="#000000" stroke-width="1" fill="none"></path></g><g transform="translate(194.13961791992188 274.6528015136719) rotate(0 0.5751576915911869 65.0525533551816)"><path d="M11.66 102.2 C7.07 114.37, 5.35 124.65, 2.33 133.35 M11.9 104.05 C8.34 112.76, 4.55 123.15, 1.28 132.15" stroke="#000000" stroke-width="1" fill="none"></path></g></g><g stroke-linecap="round"><g transform="translate(287.6956481933594 270.87945556640625) rotate(0 6.9239947286760355 64.13400714980904)"><path d="M0.12 1.13 C2.62 22.25, 12.96 106.68, 15.13 127.59 M-1.28 0.68 C1.15 21.39, 11.92 104.71, 14.73 125.9" stroke="#000000" stroke-width="1" fill="none"></path></g><g transform="translate(287.6956481933594 270.87945556640625) rotate(0 6.9239947286760355 64.13400714980904)"><path d="M2.8 101.01 C6.76 105.91, 9.33 116.66, 15.09 124.13 M0.21 99.58 C5.05 106.04, 9.62 114.78, 14.29 126.05" stroke="#000000" stroke-width="1" fill="none"></path></g><g transform="translate(287.6956481933594 270.87945556640625) rotate(0 6.9239947286760355 64.13400714980904)"><path d="M23.14 98.35 C20.83 104.09, 17.11 115.67, 15.09 124.13 M20.56 96.93 C19.54 104.11, 18.27 113.62, 14.29 126.05" stroke="#000000" stroke-width="1" fill="none"></path></g></g><g stroke-linecap="round"><g transform="translate(302.3748474121094 271.91729736328125) rotate(0 41.69505493268372 35.9286436570529)"><path d="M-0.49 -0.27 C13.46 11.61, 69.67 59.77, 83.88 72.05 M1.46 -1.45 C15.18 10.52, 68.89 61.14, 82.68 73.31" stroke="#000000" stroke-width="1" fill="none"></path></g><g transform="translate(302.3748474121094 271.91729736328125) rotate(0 41.69505493268372 35.9286436570529)"><path d="M54.51 61.06 C62.94 66.32, 74.06 67.44, 84.51 74.57 M54.6 61.69 C61.64 64.98, 66.95 67.32, 82.41 73.34" stroke="#000000" stroke-width="1" fill="none"></path></g><g transform="translate(302.3748474121094 271.91729736328125) rotate(0 41.69505493268372 35.9286436570529)"><path d="M68.37 45.92 C72.5 55.93, 79.22 61.85, 84.51 74.57 M68.45 46.56 C72.3 53.43, 74.45 59.22, 82.41 73.34" stroke="#000000" stroke-width="1" fill="none"></path></g></g><g stroke-linecap="round"><g transform="translate(311.3146057128906 267.2646484375) rotate(0 32.43509089445229 2.9125198803841954)"><path d="M0.8 -1.07 C11.59 0.19, 54.62 5.67, 65.11 6.9 M-0.24 0.98 C10.45 1.94, 54.17 3.95, 64.67 5.04" stroke="#000000" stroke-width="1" fill="none"></path></g><g transform="translate(311.3146057128906 267.2646484375) rotate(0 32.43509089445229 2.9125198803841954)"><path d="M34.04 14.89 C46.22 9.7, 54.68 7.87, 65.94 4.03 M36.14 13.86 C46.37 9.8, 57.05 7.81, 65.32 4.34" stroke="#000000" stroke-width="1" fill="none"></path></g><g transform="translate(311.3146057128906 267.2646484375) rotate(0 32.43509089445229 2.9125198803841954)"><path d="M35.49 -5.58 C47.07 -4.02, 55.06 0.9, 65.94 4.03 M37.59 -6.61 C47.33 -3.13, 57.48 2.43, 65.32 4.34" stroke="#000000" stroke-width="1" fill="none"></path></g></g><g stroke-linecap="round"><g transform="translate(285.7111511230469 139.3154296875) rotate(0 140.40847740302792 6.76140869532712)"><path d="M0.69 0.45 C47.21 2.57, 232.23 10.44, 278.91 12.88 M-0.41 -0.36 C46.51 1.86, 234.4 11.59, 281.23 13.88" stroke="#000000" stroke-width="1" fill="none"></path></g><g transform="translate(285.7111511230469 139.3154296875) rotate(0 140.40847740302792 6.76140869532712)"><path d="M253.31 21.45 C258.94 21.87, 270.77 18.15, 282.3 13.13 M253.29 21.89 C264.21 19.07, 274.55 14.95, 281.28 12.99" stroke="#000000" stroke-width="1" fill="none"></path></g><g transform="translate(285.7111511230469 139.3154296875) rotate(0 140.40847740302792 6.76140869532712)"><path d="M254.34 0.95 C259.72 7.18, 271.25 9.26, 282.3 13.13 M254.32 1.39 C264.95 6.46, 274.89 10.24, 281.28 12.99" stroke="#000000" stroke-width="1" fill="none"></path></g></g><g stroke-linecap="round"><g transform="translate(275.5843811035156 152.54837036132812) rotate(0 171.93370619378982 71.28397032662761)"><path d="M-0.33 0.27 C56.95 23.96, 286.75 118.4, 344.19 141.97 M1.7 -0.63 C58.85 23.23, 286.67 119.33, 343.75 143.2" stroke="#000000" stroke-width="1" fill="none"></path></g><g transform="translate(275.5843811035156 152.54837036132812) rotate(0 171.93370619378982 71.28397032662761)"><path d="M314.24 143.35 C323.18 144.21, 333.13 143.03, 343.57 142.31 M314.04 142 C324.93 142.05, 337.36 142.7, 342.8 143.65" stroke="#000000" stroke-width="1" fill="none"></path></g><g transform="translate(275.5843811035156 152.54837036132812) rotate(0 171.93370619378982 71.28397032662761)"><path d="M322.19 124.43 C328.35 131.82, 335.55 137.21, 343.57 142.31 M321.99 123.08 C329.89 130.37, 339.26 138.32, 342.8 143.65" stroke="#000000" stroke-width="1" fill="none"></path></g></g></svg>