<svg version="1.1" xmlns="http://www.w3.org/2000/svg" viewBox="0 0 535.1313781738281 416.4970245361328" width="1070.2627563476562" height="832.9940490722656">
  <!-- svg-source:excalidraw -->
  
  <defs>
    <style>
      @font-face {
        font-family: "Virgil";
        src: url("https://excalidraw.com/Virgil.woff2");
      }
      @font-face {
        font-family: "Cascadia";
        src: url("https://excalidraw.com/Cascadia.woff2");
      }
    </style>
  </defs>
  <rect x="0" y="0" width="535.1313781738281" height="416.4970245361328" fill="#ffffff"></rect><g stroke-linecap="round" transform="translate(84.86944580078125 10) rotate(0 55 27.5)"><path d="M43.57 0.49 C52.78 -1.09, 65.06 -0.36, 74.39 1.38 C83.71 3.12, 93.52 6.95, 99.52 10.93 C105.53 14.9, 109.83 20.27, 110.42 25.22 C111 30.16, 107.87 36.19, 103.04 40.6 C98.21 45, 90.02 49.2, 81.44 51.66 C72.85 54.12, 61.55 55.85, 51.53 55.36 C41.51 54.87, 29.2 51.66, 21.34 48.7 C13.49 45.74, 7.76 42.23, 4.41 37.6 C1.07 32.98, -0.66 25.9, 1.27 20.96 C3.21 16.01, 8.07 11.35, 16.03 7.93 C23.99 4.51, 42.31 1.79, 49.04 0.45 C55.78 -0.88, 56.14 -0.55, 56.44 -0.07 M36.55 2.69 C45.01 0.79, 58.69 -1.04, 68.35 0.11 C78.01 1.26, 87.92 5.94, 94.51 9.61 C101.11 13.28, 106 17.49, 107.93 22.11 C109.86 26.74, 109.52 32.55, 106.09 37.34 C102.66 42.13, 95.47 47.7, 87.35 50.85 C79.23 54, 67.26 56.39, 57.38 56.27 C47.5 56.15, 36.57 53, 28.06 50.13 C19.55 47.26, 10.83 43.24, 6.33 39.05 C1.83 34.85, -0.01 29.69, 1.04 24.95 C2.1 20.21, 6.74 14.47, 12.67 10.6 C18.59 6.72, 32.45 3.28, 36.61 1.69 C40.76 0.1, 37.28 0.57, 37.62 1.08" stroke="#000000" stroke-width="1" fill="none"></path></g><g transform="translate(89.86944580078125 17.5) rotate(0 50 20)"><text x="50" y="14" font-family="Virgil, Segoe UI Emoji" font-size="16px" fill="#000000" text-anchor="middle" style="white-space: pre;" direction="ltr">Coping with </text><text x="50" y="34" font-family="Virgil, Segoe UI Emoji" font-size="16px" fill="#000000" text-anchor="middle" style="white-space: pre;" direction="ltr">Load</text></g><g stroke-linecap="round" transform="translate(20.4029541015625 79.76632690429688) rotate(0 55 27.5)"><path d="M74.94 1.48 C84.03 2.82, 93.95 7.16, 99.87 11.16 C105.79 15.17, 109.98 20.56, 110.46 25.51 C110.94 30.46, 107.68 36.47, 102.76 40.85 C97.84 45.23, 89.56 49.38, 80.93 51.8 C72.29 54.21, 60.95 55.89, 50.95 55.34 C40.94 54.8, 28.66 51.53, 20.87 48.53 C13.08 45.52, 7.45 41.97, 4.21 37.33 C0.96 32.69, -0.64 25.6, 1.4 20.67 C3.44 15.74, 9.49 11.01, 16.44 7.72 C23.39 4.43, 32.92 1.92, 43.09 0.92 C53.26 -0.09, 71.33 1.2, 77.47 1.69 C83.62 2.18, 80.51 3.25, 79.97 3.88 M48.07 -0.6 C57.41 -1.63, 69.44 1.33, 78.23 3.53 C87.02 5.73, 95.45 8.62, 100.81 12.6 C106.17 16.58, 110.24 22.23, 110.39 27.41 C110.54 32.58, 107.24 39.21, 101.71 43.66 C96.18 48.11, 86.34 52.43, 77.24 54.1 C68.14 55.76, 56.89 54.82, 47.11 53.67 C37.32 52.52, 25.96 50.28, 18.53 47.18 C11.09 44.08, 5.11 39.7, 2.51 35.09 C-0.08 30.48, 0.23 24.27, 2.94 19.52 C5.65 14.77, 11.27 9.92, 18.77 6.57 C26.28 3.21, 43.15 0.24, 47.98 -0.61 C52.8 -1.46, 47.48 1.08, 47.72 1.48" stroke="#000000" stroke-width="1" fill="none"></path></g><g transform="translate(25.4029541015625 87.26632690429688) rotate(0 50 20)"><text x="50" y="14" font-family="Virgil, Segoe UI Emoji" font-size="16px" fill="#000000" text-anchor="middle" style="white-space: pre;" direction="ltr">Scale up </text><text x="50" y="34" font-family="Virgil, Segoe UI Emoji" font-size="16px" fill="#000000" text-anchor="middle" style="white-space: pre;" direction="ltr">(vertically)</text></g><g stroke-linecap="round" transform="translate(186.66055297851562 90.81631469726562) rotate(0 66 35.5)"><path d="M60.75 0.2 C71.09 -0.79, 84.49 0.66, 94.28 3.15 C104.08 5.63, 113.33 10.25, 119.53 15.13 C125.73 20, 130.41 26.45, 131.48 32.4 C132.56 38.35, 130.73 45.62, 125.99 50.82 C121.24 56.02, 111.9 60.2, 103.03 63.59 C94.16 66.98, 83.55 70.63, 72.78 71.17 C62 71.71, 48.49 69.42, 38.4 66.84 C28.31 64.26, 18.67 60.33, 12.24 55.7 C5.82 51.06, 0.81 44.98, -0.15 39.02 C-1.12 33.07, 1.66 25.32, 6.48 19.98 C11.29 14.63, 17.71 10.13, 28.73 6.94 C39.75 3.75, 63.14 1.76, 72.6 0.84 C82.06 -0.08, 85.36 1.01, 85.5 1.42 M47.61 0.54 C57.69 -1.67, 72.4 -1.39, 83.45 0.36 C94.5 2.11, 106.06 6.5, 113.91 11.04 C121.75 15.57, 127.63 22.11, 130.51 27.56 C133.39 33.01, 134.05 38.33, 131.19 43.73 C128.33 49.13, 121.27 55.54, 113.37 59.98 C105.48 64.42, 94.51 68.63, 83.82 70.35 C73.13 72.07, 60.21 71.85, 49.24 70.29 C38.27 68.72, 25.95 65.35, 18.01 60.96 C10.06 56.56, 4.38 49.56, 1.57 43.92 C-1.24 38.27, -1.81 32.86, 1.16 27.09 C4.13 21.31, 11.4 13.7, 19.4 9.28 C27.39 4.86, 44.42 1.86, 49.14 0.54 C53.87 -0.78, 47.6 0.55, 47.75 1.36" stroke="#000000" stroke-width="1" fill="none"></path></g><g transform="translate(191.66055297851562 106.31631469726562) rotate(0 61 20)"><text x="61" y="14" font-family="Virgil, Segoe UI Emoji" font-size="16px" fill="#000000" text-anchor="middle" style="white-space: pre;" direction="ltr">Scale out </text><text x="61" y="34" font-family="Virgil, Segoe UI Emoji" font-size="16px" fill="#000000" text-anchor="middle" style="white-space: pre;" direction="ltr">(horizontally)</text></g><g transform="translate(10 148.24966430664062) rotate(0 69 13)"><text x="0" y="11" font-family="Cascadia, Segoe UI Emoji" font-size="11.122088971195444px" fill="#000000" text-anchor="start" style="white-space: pre;" direction="ltr">Beef up the system</text><text x="0" y="24" font-family="Cascadia, Segoe UI Emoji" font-size="11.122088971195444px" fill="#000000" text-anchor="start" style="white-space: pre;" direction="ltr">(more cpu, ram, disk)</text></g><g transform="translate(236.71188354492188 176.8987274169922) rotate(0 88.5 6.5)"><text x="0" y="11" font-family="Cascadia, Segoe UI Emoji" font-size="11.122088971195444px" fill="#000000" text-anchor="start" style="white-space: pre;" direction="ltr">shared-nothing architecture</text></g><g stroke-linecap="round" transform="translate(165.71798706054688 205.43309020996094) rotate(0 66 35.5)"><path d="M86.78 2.72 C96.95 4.19, 108.11 8.18, 115.31 12.54 C122.51 16.9, 127.83 23.34, 129.97 28.89 C132.12 34.45, 131.36 40.32, 128.17 45.87 C124.97 51.42, 119.06 57.99, 110.79 62.2 C102.51 66.41, 89.5 69.82, 78.53 71.14 C67.56 72.47, 55.26 72, 44.99 70.14 C34.72 68.29, 24.04 64.47, 16.9 60.02 C9.75 55.56, 4.27 49.3, 2.12 43.4 C-0.02 37.5, 0.58 30.34, 4.04 24.62 C7.51 18.9, 14.85 13.11, 22.89 9.08 C30.94 5.06, 40.7 1.43, 52.32 0.48 C63.93 -0.47, 85.05 2.68, 92.6 3.39 C100.14 4.1, 98.1 4.27, 97.58 4.75 M83.7 1.15 C93.95 2.46, 106.48 6.93, 114.39 11.42 C122.31 15.91, 128.46 22.28, 131.17 28.1 C133.87 33.93, 133.95 40.86, 130.62 46.39 C127.29 51.92, 119.13 57.42, 111.2 61.3 C103.26 65.18, 93.81 68.4, 83.01 69.67 C72.21 70.94, 57.29 70.31, 46.4 68.92 C35.5 67.54, 24.82 65.71, 17.64 61.37 C10.46 57.02, 5.91 48.62, 3.33 42.84 C0.75 37.06, -0.55 32.12, 2.14 26.69 C4.83 21.26, 11.44 14.5, 19.46 10.25 C27.49 6, 39.48 2.56, 50.29 1.2 C61.11 -0.16, 79 2.03, 84.34 2.09 C89.68 2.16, 82.56 0.95, 82.34 1.59" stroke="#000000" stroke-width="1" fill="none"></path></g><g transform="translate(170.71798706054688 230.93309020996094) rotate(0 61 10)"><text x="61" y="14" font-family="Virgil, Segoe UI Emoji" font-size="16px" fill="#000000" text-anchor="middle" style="white-space: pre;" direction="ltr">can be elastic</text></g><g stroke-linecap="round" transform="translate(328.9774475097656 199.6299591064453) rotate(0 66 35.5)"><path d="M92.13 4 C102.07 5.8, 113.92 10.8, 120.48 15.29 C127.04 19.78, 130.48 25.2, 131.48 30.96 C132.48 36.73, 130.84 44.48, 126.48 49.88 C122.12 55.27, 114.3 59.84, 105.31 63.31 C96.31 66.78, 83.66 70.07, 72.49 70.71 C61.31 71.34, 48.19 69.55, 38.23 67.12 C28.27 64.69, 19.05 60.64, 12.71 56.12 C6.37 51.61, 1.36 45.8, 0.19 40.04 C-0.97 34.27, 1.29 27.07, 5.73 21.54 C10.16 16.01, 17.7 10.3, 26.79 6.87 C35.89 3.44, 48.36 1.36, 60.3 0.94 C72.24 0.52, 91.35 3.2, 98.41 4.36 C105.47 5.52, 102.97 7.51, 102.65 7.91 M71.5 -1.28 C82.03 -1.46, 95.54 3.24, 104.39 6.53 C113.24 9.82, 119.8 13.02, 124.62 18.46 C129.43 23.9, 134.01 32.87, 133.3 39.17 C132.58 45.48, 126.63 51.73, 120.32 56.27 C114.02 60.81, 105.31 63.89, 95.47 66.41 C85.62 68.92, 72.21 71.64, 61.26 71.38 C50.32 71.12, 39.01 68.17, 29.8 64.84 C20.58 61.52, 10.8 56.88, 5.97 51.41 C1.14 45.95, -0.28 37.97, 0.82 32.07 C1.92 26.17, 6.73 20.99, 12.57 16.01 C18.4 11.04, 25.91 4.88, 35.82 2.2 C45.73 -0.48, 66.39 0.38, 72.01 -0.05 C77.63 -0.47, 69.94 -1.08, 69.53 -0.34" stroke="#000000" stroke-width="1" fill="none"></path></g><g transform="translate(333.9774475097656 225.1299591064453) rotate(0 61 10)"><text x="61" y="14" font-family="Virgil, Segoe UI Emoji" font-size="16px" fill="#000000" text-anchor="middle" style="white-space: pre;" direction="ltr">can be manual</text></g><g transform="translate(158.53195190429688 288.97230529785156) rotate(0 78 19.5)"><text x="0" y="11" font-family="Cascadia, Segoe UI Emoji" font-size="11.122088971195444px" fill="#000000" text-anchor="start" style="white-space: pre;" direction="ltr">Useful for unpredictable</text><text x="0" y="24" font-family="Cascadia, Segoe UI Emoji" font-size="11.122088971195444px" fill="#000000" text-anchor="start" style="white-space: pre;" direction="ltr">load patterns</text><text x="0" y="37" font-family="Cascadia, Segoe UI Emoji" font-size="11.122088971195444px" fill="#000000" text-anchor="start" style="white-space: pre;" direction="ltr">more complex</text></g><g transform="translate(356.1313781738281 286.46730041503906) rotate(0 84.5 13)"><text x="0" y="11" font-family="Cascadia, Segoe UI Emoji" font-size="11.122088971195444px" fill="#000000" text-anchor="start" style="white-space: pre;" direction="ltr">simpler, fewer operational</text><text x="0" y="24" font-family="Cascadia, Segoe UI Emoji" font-size="11.122088971195444px" fill="#000000" text-anchor="start" style="white-space: pre;" direction="ltr">surprises</text></g><g transform="translate(62.397979736328125 354.4970245361328) rotate(0 225 26)"><text x="0" y="11" font-family="Cascadia, Segoe UI Emoji" font-size="11.122088971195444px" fill="#000000" text-anchor="start" style="white-space: pre;" direction="ltr">There is no one-size-fits-all scalable architecture.</text><text x="0" y="24" font-family="Cascadia, Segoe UI Emoji" font-size="11.122088971195444px" fill="#000000" text-anchor="start" style="white-space: pre;" direction="ltr">A system that is designed to handle 10,000 requests/sec for</text><text x="0" y="37" font-family="Cascadia, Segoe UI Emoji" font-size="11.122088971195444px" fill="#000000" text-anchor="start" style="white-space: pre;" direction="ltr">1 kb in size, looks very different from a system that is designed for</text><text x="0" y="50" font-family="Cascadia, Segoe UI Emoji" font-size="11.122088971195444px" fill="#000000" text-anchor="start" style="white-space: pre;" direction="ltr">3 requests/min 2GB in size.</text></g><g stroke-linecap="round"><g transform="translate(135.86349487304688 74.96229553222656) rotate(0 -5.834461446637306 4.611764709246344)"><path d="M-0.38 -0.09 C-2.65 1.63, -10.42 8.6, -12.7 10.41 M1.62 -1.18 C-0.83 0.18, -10.48 6.94, -13.29 8.63" stroke="#000000" stroke-width="1" fill="none"></path></g><g transform="translate(135.86349487304688 74.96229553222656) rotate(0 -5.834461446637306 4.611764709246344)"><path d="M-8.38 2.48 C-9.72 4, -11.33 6.8, -13.92 8 M-8.34 2.28 C-9.8 4.3, -11.32 6.26, -13.21 8.23" stroke="#000000" stroke-width="1" fill="none"></path></g><g transform="translate(135.86349487304688 74.96229553222656) rotate(0 -5.834461446637306 4.611764709246344)"><path d="M-5.29 7.22 C-7.79 6.96, -10.56 7.97, -13.92 8 M-5.24 7.02 C-7.65 7.59, -10.13 8.07, -13.21 8.23" stroke="#000000" stroke-width="1" fill="none"></path></g></g><g stroke-linecap="round"><g transform="translate(168.957275390625 69.76145935058594) rotate(0 17.734726958307476 12.688556094062506)"><path d="M-0.04 0.81 C6.19 4.9, 30.81 21.17, 36.99 25.19 M-1.52 0.19 C4.61 3.88, 29.84 19.02, 36.17 23.39" stroke="#000000" stroke-width="1" fill="none"></path></g><g transform="translate(168.957275390625 69.76145935058594) rotate(0 17.734726958307476 12.688556094062506)"><path d="M15.95 19.01 C21.44 20.43, 26.74 21.53, 34.25 24.56 M13.72 17.59 C19.12 19.36, 24.49 20.07, 36.58 23.22" stroke="#000000" stroke-width="1" fill="none"></path></g><g transform="translate(168.957275390625 69.76145935058594) rotate(0 17.734726958307476 12.688556094062506)"><path d="M24.08 6.26 C27.46 11.1, 30.58 15.63, 34.25 24.56 M21.86 4.85 C25.26 9.55, 28.73 13.23, 36.58 23.22" stroke="#000000" stroke-width="1" fill="none"></path></g></g><g stroke-linecap="round"><g transform="translate(207.62188720703125 159.09275817871094) rotate(0 -0.2588728513981664 20.127272317493322)"><path d="M-1 0.12 C-1.26 6.78, -1.29 33.27, -1.41 40.02 M0.68 -0.86 C0.79 5.92, 0.91 33.99, 0.89 41.11" stroke="#000000" stroke-width="1" fill="none"></path></g><g transform="translate(207.62188720703125 159.09275817871094) rotate(0 -0.2588728513981664 20.127272317493322)"><path d="M-5.92 20.61 C-5.33 26.13, -2.08 32.96, -0.85 42.87 M-5.71 21.47 C-2.8 28.86, -1.01 35.39, -0.02 40.94" stroke="#000000" stroke-width="1" fill="none"></path></g><g transform="translate(207.62188720703125 159.09275817871094) rotate(0 -0.2588728513981664 20.127272317493322)"><path d="M8.06 20.59 C4.27 26, 3.14 32.84, -0.85 42.87 M8.27 21.45 C6.23 28.81, 3.08 35.35, -0.02 40.94" stroke="#000000" stroke-width="1" fill="none"></path></g></g><g stroke-linecap="round"><g transform="translate(325.8206481933594 142.4197540283203) rotate(0 1.8259020532202044 37.34942027541345)"><path d="M1.1 -0.59 C1.37 11.67, 0.86 61.61, 1.09 74.38 M0.21 1.71 C0.92 14.01, 3.12 63.26, 3.44 75.29" stroke="#000000" stroke-width="1" fill="none"></path></g><g transform="translate(325.8206481933594 142.4197540283203) rotate(0 1.8259020532202044 37.34942027541345)"><path d="M-8.85 46.34 C-6.77 55.74, -1.16 60.51, 3.09 76.94 M-7.54 47.79 C-6.12 54.42, -3.39 59.47, 3.99 74.7" stroke="#000000" stroke-width="1" fill="none"></path></g><g transform="translate(325.8206481933594 142.4197540283203) rotate(0 1.8259020532202044 37.34942027541345)"><path d="M11.65 45.58 C8.49 55.36, 8.84 60.33, 3.09 76.94 M12.96 47.03 C10.03 53.81, 8.38 59.02, 3.99 74.7" stroke="#000000" stroke-width="1" fill="none"></path></g></g></svg>