<svg version="1.1" xmlns="http://www.w3.org/2000/svg" viewBox="0 0 839.0657043457031 329.13934326171875" width="1678.1314086914062" height="658.2786865234375">
  <!-- svg-source:excalidraw -->
  
  <defs>
    <style>
      @font-face {
        font-family: "Virgil";
        src: url("https://excalidraw.com/Virgil.woff2");
      }
      @font-face {
        font-family: "Cascadia";
        src: url("https://excalidraw.com/Cascadia.woff2");
      }
    </style>
  </defs>
  <rect x="0" y="0" width="839.0657043457031" height="329.13934326171875" fill="#ffffff"></rect><g stroke-linecap="round" transform="translate(648.2684020996094 99.94076538085938) rotate(0 25.6832275390625 40.679443359375)"><path d="M12.32 5.41 C12.32 5.41, 12.32 5.41, 12.32 5.41 M12.32 5.41 C12.32 5.41, 12.32 5.41, 12.32 5.41 M1.79 21.99 C8.89 17.03, 16.03 8.09, 21.18 1.65 M2.53 23.38 C5.59 18.51, 9.45 14.25, 20.82 3.17 M6.03 27.39 C10.76 16.84, 15.91 11.13, 27.62 -0.04 M5.29 26.92 C10.71 19.39, 16.86 11.88, 27.42 -0.67 M3.35 31.16 C12.7 24.97, 22.14 14.14, 30.21 2.58 M4.8 33.33 C13.06 22.87, 21.62 13.85, 29.63 2.85 M4.92 39.82 C13.5 29.9, 19.6 24.05, 34.59 4.7 M3.53 39.49 C14.79 26.33, 23.98 15.38, 34 4.95 M2.96 45.21 C15.68 32.27, 22.04 23.28, 37.53 7.23 M3.61 44.47 C11.54 36.55, 18.91 29.09, 37.85 5.53 M5.08 52.08 C13.01 41.95, 18.58 31.02, 39.2 9.6 M2.71 52.76 C16.01 36.57, 30.96 21.54, 40.92 9.57 M5.19 55.91 C16.53 44.2, 26.86 30.82, 43.51 11.14 M4.36 55.62 C15.73 43.45, 27.04 31.84, 45.23 10.03 M4.78 61.68 C20.98 44.26, 36.26 25.15, 46.6 13.49 M6.62 61.4 C14.08 51.72, 23.08 42.27, 46.9 15.87 M7.06 65.83 C19.7 51.24, 31.18 39.57, 47.06 19.18 M7.75 65.11 C17.28 53.62, 27.78 42.41, 47.92 20.17 M8.83 67.51 C19.75 56.48, 30.99 47.38, 48.39 23.78 M9.42 69.14 C24.54 53.43, 38.49 36.35, 49.94 23.81 M8.76 73.88 C21.42 65.59, 27.23 52.9, 51.39 29.76 M10.51 74.23 C25.84 56.6, 39.34 40.87, 50.2 28.96 M13.75 75.24 C24.93 66.42, 33.63 54.1, 51.18 31.15 M14.84 76.1 C29.29 59.78, 42.15 44.2, 51.9 33.23 M19.46 79.97 C27.57 64.62, 39.83 54.43, 52.93 40.14 M17.18 77.97 C31.84 63.49, 44.64 48.41, 51.42 37.9 M20.52 81.11 C34.04 65.83, 45.05 52.76, 52.16 43.92 M20.9 80.67 C32.01 67.84, 43.93 54.87, 52.05 44.29 M24.94 83.93 C30.47 72.54, 39.69 65.89, 51.18 51.11 M25.77 81.86 C34.56 70.93, 45.81 58.8, 51.86 51.73 M33.15 80.89 C39.79 73.23, 41.64 66.15, 51.47 57.12 M32.5 78.41 C39.19 71.9, 45.41 66.36, 51.49 58.52" stroke="#e64980" stroke-width="0.5" fill="none"></path><path d="M27.81 -0.18 C32.65 -0.06, 39.37 4.33, 43.16 9.58 C46.95 14.83, 49.42 23.44, 50.55 31.34 C51.68 39.24, 51.81 49.68, 49.96 56.99 C48.12 64.3, 43.87 71.11, 39.47 75.19 C35.07 79.27, 28.78 82.11, 23.56 81.47 C18.34 80.84, 11.92 76.67, 8.15 71.39 C4.37 66.11, 1.99 57.73, 0.92 49.78 C-0.15 41.83, -0.12 31.05, 1.73 23.71 C3.58 16.37, 7.01 9.38, 12.01 5.77 C17.01 2.16, 27.74 2.34, 31.75 2.05 C35.75 1.75, 36.06 3.58, 36.05 4.01 M26.15 0.06 C30.75 0.11, 37.27 3.05, 41.43 8.45 C45.59 13.85, 49.68 24.6, 51.12 32.44 C52.55 40.28, 51.91 48.25, 50.03 55.51 C48.16 62.77, 44.26 71.64, 39.89 75.99 C35.51 80.34, 29.03 82.42, 23.77 81.61 C18.51 80.79, 11.93 76.37, 8.32 71.09 C4.72 65.8, 3.15 57.3, 2.16 49.9 C1.16 42.51, 0.72 34.18, 2.33 26.72 C3.94 19.25, 7.48 9.77, 11.81 5.12 C16.14 0.46, 25.5 -0.34, 28.31 -1.22 C31.12 -2.09, 28.68 -1.09, 28.66 -0.12" stroke="#000000" stroke-width="1" fill="none"></path></g><g stroke-linecap="round" transform="translate(373.5069885253906 100.25360107421875) rotate(0 30.958404541015625 40.97607421875)"><path d="M13.84 5.41 C13.84 5.41, 13.84 5.41, 13.84 5.41 M13.84 5.41 C13.84 5.41, 13.84 5.41, 13.84 5.41 M6.81 20.11 C8.72 17.16, 12.82 13.12, 20.96 3.8 M5.54 21.95 C8.99 17.41, 12.2 14.4, 20.61 4.1 M3.99 27.08 C13.83 18.11, 21.12 8.05, 28.45 2.06 M5.73 27.77 C10.58 20.92, 16.68 14.82, 27.43 2.91 M2.63 34.29 C11.59 24.15, 21.36 14.44, 34.36 0.53 M3.2 34.89 C11.8 26.11, 20.46 16.29, 32.59 2.08 M2.59 39.57 C12.55 32.88, 23.38 19.36, 36.06 3.69 M4.15 41.32 C15.9 27.55, 28 11.86, 37.72 2.5 M0.6 49.55 C15.28 33.83, 32.46 15.68, 41.6 3.65 M0.78 50.64 C10.47 40.43, 19.21 28.65, 40.33 4.36 M2.32 55.71 C20.93 34.75, 33.74 17.92, 45.42 7.53 M2.96 53.44 C17.86 37.39, 33.74 19.47, 45.13 6.02 M3.59 57.89 C14.12 49.29, 21.19 38.13, 46.62 8.89 M5.04 58.27 C14.82 46.46, 25.06 35.5, 47.85 8.78 M7.87 62.77 C17.62 49.68, 24.63 40.37, 52.6 10.04 M6.82 63.6 C17.91 47.34, 31.75 33.61, 52.42 10.71 M9.9 66.84 C24.39 51.6, 37.2 31.79, 52.69 14.73 M8.83 66.19 C19.12 53.65, 31.05 40.64, 54.19 14.74 M11.31 70.73 C26.6 54.2, 41.49 35.35, 55.69 19.69 M9.44 70.87 C22.52 57.06, 34.78 43.73, 55.01 19.65 M12.95 72.84 C30.58 54.34, 46.16 36.56, 55.6 23.82 M12.8 73.58 C25.77 58.38, 40.79 42.49, 56.54 22.69 M17.81 76.48 C31.88 56.89, 44.98 43.4, 57.2 28.31 M15.28 76.01 C26.69 64.46, 37.53 51.89, 59.4 27.13 M20.71 78.49 C31.35 65.24, 43.22 49.77, 60.34 30.24 M18.76 77.61 C28.81 67.93, 37.15 57.82, 60.99 31.32 M23.17 79.86 C33.47 69.62, 42.28 58.15, 61.6 35.21 M23.07 79.64 C32.86 69.57, 40.87 58.65, 62.72 34.75 M27.78 81.61 C35.14 70.24, 46.01 60.63, 61.23 40.52 M27.86 82.52 C35.4 71.37, 45.89 58.66, 62.55 40.64 M29.76 83.16 C45 67.59, 57.29 52.08, 62.68 44.43 M29.8 83.63 C41.26 69.12, 54.6 55.81, 64.06 46.68 M36.57 80.17 C45.27 71.26, 52.85 65.15, 59.11 55.65 M37.68 80.57 C44.64 72.93, 52.61 63.06, 60.48 55.94" stroke="#fa5252" stroke-width="0.5" fill="none"></path><path d="M33.2 0.53 C38.86 0.56, 46.59 4.89, 51.13 10.01 C55.68 15.14, 58.98 23.72, 60.48 31.28 C61.98 38.85, 62.43 48, 60.12 55.42 C57.82 62.83, 51.91 71.3, 46.64 75.77 C41.38 80.23, 34.5 82.75, 28.54 82.22 C22.58 81.69, 15.46 77.95, 10.87 72.6 C6.28 67.25, 2.4 57.79, 0.99 50.11 C-0.42 42.43, 0.28 33.95, 2.4 26.52 C4.51 19.1, 8.02 9.93, 13.69 5.59 C19.37 1.24, 32.09 1.12, 36.44 0.44 C40.78 -0.24, 39.8 0.73, 39.75 1.49 M18.09 4.3 C23.41 0.63, 32.31 -0.56, 38.06 0.79 C43.8 2.14, 48.52 6.27, 52.57 12.39 C56.62 18.51, 61.3 29.35, 62.36 37.53 C63.42 45.7, 61.91 54.66, 58.94 61.43 C55.97 68.2, 50.46 75.08, 44.54 78.15 C38.62 81.21, 29.75 81.38, 23.44 79.82 C17.12 78.26, 10.38 74.32, 6.66 68.8 C2.94 63.28, 1.4 54.97, 1.11 46.72 C0.83 38.47, 1.92 26.64, 4.96 19.28 C7.99 11.91, 16.99 4.85, 19.34 2.53 C21.69 0.21, 18.77 4.55, 19.04 5.34" stroke="#000000" stroke-width="1" fill="none"></path></g><g stroke-linecap="round"><g transform="translate(408.2010192871094 99.9739990234375) rotate(0 132.01380464658138 0.13655773325402265)"><path d="M-0.93 0.47 C43.42 0.42, 220.77 -0.55, 264.95 -0.53 M0.79 -0.32 C45.13 -0.19, 220.55 0.97, 264.31 0.79" stroke="#000000" stroke-width="1" fill="none"></path></g></g><g stroke-linecap="round"><g transform="translate(412.7565002441406 181.9565887451172) rotate(0 132.9475379577931 0.2987114175947454)"><path d="M0.9 -0.86 C45 -0.76, 219.69 -0.72, 263.65 -0.49 M-0.09 1.31 C44.48 1.66, 221.96 1.32, 265.99 0.85" stroke="#000000" stroke-width="1" fill="none"></path></g></g><g stroke-linecap="round"><g transform="translate(281.9707946777344 144.39306640625) rotate(0 60.115112034729634 -1.0191812790930328)"><path d="M0.78 0.19 C20.73 -0.19, 100.4 -2.03, 120.5 -2.23 M-0.27 -0.76 C19.48 -0.96, 99.41 -0.45, 119.65 -0.79" stroke="#000000" stroke-width="4" fill="none"></path></g></g><g stroke-linecap="round"><g transform="translate(679.8750915527345 138.9013671875) rotate(0 73.92055636573116 0.7853208572091717)"><path d="M-0.84 0.73 C23.56 0.58, 121.85 0.27, 146.32 0.01 M0.92 0.07 C25.72 0.04, 124.11 1.56, 148.68 1.56" stroke="#000000" stroke-width="4" fill="none"></path></g><g transform="translate(679.8750915527345 138.9013671875) rotate(0 73.92055636573116 0.7853208572091717)"><path d="M121.62 10.47 C128.68 7.17, 135.63 5.6, 149.29 1.5 M120.45 11.59 C131.01 7.03, 141.93 4.17, 148.34 2.2" stroke="#000000" stroke-width="4" fill="none"></path></g><g transform="translate(679.8750915527345 138.9013671875) rotate(0 73.92055636573116 0.7853208572091717)"><path d="M121.8 -10.05 C128.96 -7.31, 135.86 -2.83, 149.29 1.5 M120.62 -8.93 C131 -5.9, 141.86 -1.16, 148.34 2.2" stroke="#000000" stroke-width="4" fill="none"></path></g></g><g transform="translate(10 164.55401611328125) rotate(0 187.5 39)"><text x="0" y="15.5" font-family="Cascadia, Segoe UI Emoji" font-size="16px" fill="#000000" text-anchor="start" style="white-space: pre;" direction="ltr">Throughput measures data transmitted</text><text x="0" y="35" font-family="Cascadia, Segoe UI Emoji" font-size="16px" fill="#000000" text-anchor="start" style="white-space: pre;" direction="ltr">and received during a specific time </text><text x="0" y="54.5" font-family="Cascadia, Segoe UI Emoji" font-size="16px" fill="#000000" text-anchor="start" style="white-space: pre;" direction="ltr">period. (Throughput is the water through</text><text x="0" y="74" font-family="Cascadia, Segoe UI Emoji" font-size="16px" fill="#000000" text-anchor="start" style="white-space: pre;" direction="ltr">the pipe) </text></g><g transform="translate(391.2113952636719 260.13934326171875) rotate(0 155 29.5)"><text x="0" y="15.666666666666668" font-family="Cascadia, Segoe UI Emoji" font-size="16px" fill="#000000" text-anchor="start" style="white-space: pre;" direction="ltr">Latency measures data speed </text><text x="0" y="35.333333333333336" font-family="Cascadia, Segoe UI Emoji" font-size="16px" fill="#000000" text-anchor="start" style="white-space: pre;" direction="ltr">(How quickly does the water in</text><text x="0" y="55" font-family="Cascadia, Segoe UI Emoji" font-size="16px" fill="#000000" text-anchor="start" style="white-space: pre;" direction="ltr"> the pipe reach the destination?)</text></g><g transform="translate(425.0657043457031 10) rotate(0 202 19.5)"><text x="0" y="15.5" font-family="Cascadia, Segoe UI Emoji" font-size="16px" fill="#000000" text-anchor="start" style="white-space: pre;" direction="ltr">Bandwidth measures capacity</text><text x="0" y="35" font-family="Cascadia, Segoe UI Emoji" font-size="16px" fill="#000000" text-anchor="start" style="white-space: pre;" direction="ltr">(A bigger pipe would mean higher bandwidth)</text></g><g stroke-linecap="round"><g transform="translate(392.6567077636719 253.698486328125) rotate(0 144.73286385824434 -6.230367411500765)"><path d="M-0.77 -0.69 C2.9 -4.95, 9.76 -22.18, 23.04 -24.79 C36.33 -27.39, 64.21 -19.39, 78.92 -16.3 C93.63 -13.21, 101.87 -4.5, 111.29 -6.23 C120.7 -7.95, 128.03 -26.29, 135.41 -26.66 C142.79 -27.02, 147.36 -11.57, 155.58 -8.42 C163.79 -5.27, 174.77 -4.89, 184.69 -7.75 C194.6 -10.62, 200.63 -23.66, 215.05 -25.58 C229.47 -27.5, 258.73 -25.91, 271.2 -19.26 C283.67 -12.62, 286.58 8.64, 289.88 14.29 M1.02 1.57 C4.43 -2.63, 8.65 -20.86, 22.02 -23.65 C35.38 -26.44, 66.23 -17.75, 81.23 -15.18 C96.23 -12.61, 103.17 -6.29, 112.01 -8.21 C120.85 -10.14, 127.36 -27.06, 134.27 -26.75 C141.18 -26.45, 144.9 -9.87, 153.47 -6.38 C162.04 -2.88, 175.63 -2.56, 185.69 -5.77 C195.75 -8.97, 199.28 -23.71, 213.84 -25.62 C228.39 -27.52, 260.29 -23.83, 273.03 -17.2 C285.76 -10.58, 287.16 9.19, 290.24 14.14" stroke="#000000" stroke-width="1" fill="none"></path></g></g><g stroke-linecap="round"><g transform="translate(619.4446716308594 66.3924560546875) rotate(0 -9.874774865061 14.353024354171936)"><path d="M0.7 0.91 C-2.55 5.52, -17.09 23.97, -20.45 28.36 M-0.4 0.34 C-3.18 4.58, -14.9 22.1, -18.19 26.82" stroke="#000000" stroke-width="1" fill="none"></path></g><g transform="translate(619.4446716308594 66.3924560546875) rotate(0 -9.874774865061 14.353024354171936)"><path d="M-12.78 9.33 C-13.32 14.29, -15.72 17.93, -16.81 25.51 M-14.56 10.29 C-16 16.5, -16.16 21.05, -18.53 26.22" stroke="#000000" stroke-width="1" fill="none"></path></g><g transform="translate(619.4446716308594 66.3924560546875) rotate(0 -9.874774865061 14.353024354171936)"><path d="M-3.3 15.8 C-5.94 19.4, -10.4 21.63, -16.81 25.51 M-5.08 16.76 C-9.79 20.83, -13.21 23.15, -18.53 26.22" stroke="#000000" stroke-width="1" fill="none"></path></g></g></svg>