<svg version="1.1" xmlns="http://www.w3.org/2000/svg" viewBox="0 0 271.4984274161154 370.4269094497481" width="25.44" height="370.4269094497481">
  <!-- svg-source:excalidraw -->
  
  <defs>
    <style class="style-fonts">
      
    </style>
    
  </defs>
  <g stroke-linecap="round" transform="translate(73.94285360124388 193.68496609969839) rotate(0 93.77778690743577 63.61965476399996)"><path d="M31.81 0 C64.01 0.95, 94.42 -3.54, 155.75 0 C178.79 3.36, 186.34 8.17, 187.56 31.81 C183.81 49.76, 189.55 72.64, 187.56 95.43 C186.82 116.18, 180.08 128.25, 155.75 127.24 C111.02 123.71, 65.51 122.56, 31.81 127.24 C11.85 129.58, -2.78 119.65, 0 95.43 C1.02 74.35, 0.71 57, 0 31.81 C1.77 10.99, 8.65 -1.02, 31.81 0" stroke="none" stroke-width="0" fill="#1971c2"></path><path d="M31.81 0 C66.64 -1.26, 98.89 0.13, 155.75 0 M31.81 0 C62.09 0.1, 94.78 0.61, 155.75 0 M155.75 0 C177.97 0.57, 186.37 12.29, 187.56 31.81 M155.75 0 C177.17 -1.49, 186.73 8.84, 187.56 31.81 M187.56 31.81 C189.63 53.05, 186.95 77.24, 187.56 95.43 M187.56 31.81 C187.58 44.86, 186.75 56.64, 187.56 95.43 M187.56 95.43 C186.37 115.7, 176.26 128.51, 155.75 127.24 M187.56 95.43 C185.64 117.13, 178 128.09, 155.75 127.24 M155.75 127.24 C129.56 125.86, 101.62 125.83, 31.81 127.24 M155.75 127.24 C123.54 126.65, 89.63 126.44, 31.81 127.24 M31.81 127.24 C10.7 127.89, 0.14 117.41, 0 95.43 M31.81 127.24 C12.83 128.8, -0.09 118.31, 0 95.43 M0 95.43 C1.59 81.35, 0.89 69.88, 0 31.81 M0 95.43 C0.87 71.74, 0.03 46.97, 0 31.81 M0 31.81 C-1.13 11.49, 10.66 1.24, 31.81 0 M0 31.81 C-2.26 11.2, 9.59 -2.16, 31.81 0" stroke="#000000" stroke-width="2" fill="none"></path></g><g stroke-linecap="round" transform="translate(102.18607553514278 216.41856203925386) rotate(0 66.45794694290419 40.267631416916174)"><path d="M20.13 0 C52.06 -3.87, 79.29 2.83, 112.78 0 C124.99 -2.44, 133.14 5.79, 132.92 20.13 C134.51 32.83, 131.49 41.35, 132.92 60.4 C136.04 74.84, 128.15 82.05, 112.78 80.54 C91.02 77.23, 75.53 82.19, 20.13 80.54 C3.93 83.55, 0.24 76.65, 0 60.4 C1.23 50.81, 1.39 40.44, 0 20.13 C-1.95 5.69, 7.53 -1.44, 20.13 0" stroke="none" stroke-width="0" fill="#ffffff"></path><path d="M20.13 0 C49.23 0.91, 80.25 -0.21, 112.78 0 M20.13 0 C47.9 0.51, 75.33 0.25, 112.78 0 M112.78 0 C125.02 1.69, 133.1 5.42, 132.92 20.13 M112.78 0 C125.38 -1.76, 133.95 8.88, 132.92 20.13 M132.92 20.13 C132.01 31.79, 131.22 38.62, 132.92 60.4 M132.92 20.13 C132.89 30.23, 132.55 41.17, 132.92 60.4 M132.92 60.4 C132.23 75.09, 124.54 80.96, 112.78 80.54 M132.92 60.4 C133.96 74.67, 124.17 81.67, 112.78 80.54 M112.78 80.54 C91.77 80.15, 73.47 79.37, 20.13 80.54 M112.78 80.54 C88.42 80.26, 65.53 80.83, 20.13 80.54 M20.13 80.54 C6.85 81.31, 1.94 75.18, 0 60.4 M20.13 80.54 C6.62 82.21, -2.11 72.92, 0 60.4 M0 60.4 C0.36 47.39, 1.2 30.55, 0 20.13 M0 60.4 C-0.68 44.77, -0.67 31.48, 0 20.13 M0 20.13 C0.06 7.96, 4.75 0.52, 20.13 0 M0 20.13 C-1.01 4.55, 5.32 1.22, 20.13 0" stroke="#000000" stroke-width="2" fill="none"></path></g><g stroke-linecap="round" transform="translate(70.28855672624388 62.860747349698386) rotate(0 93.77778690743577 63.61965476399996)"><path d="M31.81 0 C74.8 -0.72, 126.63 -1.91, 155.75 0 C173.7 1.39, 189.79 9.83, 187.56 31.81 C185.41 46.55, 184.41 62.46, 187.56 95.43 C189.73 116.79, 174.39 129.18, 155.75 127.24 C117.19 131.57, 79.01 125.18, 31.81 127.24 C10.86 130.21, -1.72 113.06, 0 95.43 C-2.29 70.21, -2.5 50.79, 0 31.81 C-0.05 13.03, 11.75 -2.72, 31.81 0" stroke="none" stroke-width="0" fill="#1971c2"></path><path d="M31.81 0 C59.06 -1.01, 85.4 0.26, 155.75 0 M31.81 0 C61.71 -1.29, 92.48 -1.81, 155.75 0 M155.75 0 C175.56 -1.27, 187.07 12.41, 187.56 31.81 M155.75 0 C177.68 1.64, 188.62 9.28, 187.56 31.81 M187.56 31.81 C188.1 49.47, 187.82 66.63, 187.56 95.43 M187.56 31.81 C188.12 50.73, 187.59 68.18, 187.56 95.43 M187.56 95.43 C188.5 115.37, 177.49 126.91, 155.75 127.24 M187.56 95.43 C186.28 114.74, 175.08 128.26, 155.75 127.24 M155.75 127.24 C113.38 127.69, 67.24 126.11, 31.81 127.24 M155.75 127.24 C110.52 128.43, 65.54 128.7, 31.81 127.24 M31.81 127.24 C10.18 126.85, 1.9 117.93, 0 95.43 M31.81 127.24 C9.83 125.93, 0.13 117.54, 0 95.43 M0 95.43 C0.69 77.02, -2.12 60.58, 0 31.81 M0 95.43 C-0.49 74.13, -0.21 53.19, 0 31.81 M0 31.81 C-1.75 11.54, 11.2 -0.78, 31.81 0 M0 31.81 C-0.34 11.73, 10.83 -1.65, 31.81 0" stroke="#000000" stroke-width="2" fill="none"></path></g><g stroke-linecap="round" transform="translate(98.53177866014278 85.59434328925363) rotate(0 66.45794694290419 40.267631416916174)"><path d="M20.13 0 C50.09 -1.72, 70.15 1.85, 112.78 0 C128.44 -0.78, 129.86 4.94, 132.92 20.13 C130.02 35.01, 134.78 43.49, 132.92 60.4 C130.35 75.77, 126.85 82.49, 112.78 80.54 C82.74 78.96, 48.83 85.04, 20.13 80.54 C4.99 76.96, 2.75 71.28, 0 60.4 C-2.69 53.91, 0.58 43.37, 0 20.13 C1.15 3.99, 4.44 1.56, 20.13 0" stroke="none" stroke-width="0" fill="#ffffff"></path><path d="M20.13 0 C43.82 0.52, 68.75 2.27, 112.78 0 M20.13 0 C54.4 -0.56, 87.35 -0.2, 112.78 0 M112.78 0 C125.72 1.81, 133.55 8.13, 132.92 20.13 M112.78 0 C127.27 -1.32, 132.37 6.63, 132.92 20.13 M132.92 20.13 C133.31 28.34, 132.67 39.05, 132.92 60.4 M132.92 20.13 C132.38 36.31, 133.39 50.87, 132.92 60.4 M132.92 60.4 C133.45 73.5, 125.1 78.88, 112.78 80.54 M132.92 60.4 C131.04 74.84, 127.34 78.79, 112.78 80.54 M112.78 80.54 C87.94 80.58, 68.31 80.96, 20.13 80.54 M112.78 80.54 C79.74 81.64, 45.69 80.74, 20.13 80.54 M20.13 80.54 C8.61 81.83, -0.67 72.68, 0 60.4 M20.13 80.54 C6.84 81.44, -0.38 75.13, 0 60.4 M0 60.4 C-1.97 51.38, 0.3 40.89, 0 20.13 M0 60.4 C0.17 49.07, -0.8 39.83, 0 20.13 M0 20.13 C0.6 5.93, 6.41 0.98, 20.13 0 M0 20.13 C0.22 5.07, 8.3 -1.84, 20.13 0" stroke="#000000" stroke-width="2" fill="none"></path></g><g stroke-linecap="round" transform="translate(69.5370467586796 125.86321461369835) rotate(11.596854507974804 61.962890625 57.876953125)"><path d="M77.5 14.5 C85.31 23.41, 94.89 34.15, 108.43 43.5 C122.9 57.85, 121.98 55.72, 108.43 72.5 C96.73 81.2, 84.11 89.09, 77.5 101.25 C63.85 116.79, 62.73 113.06, 46.5 101.25 C42.38 96.58, 29.91 89.31, 15.5 72.5 C2.2 55.37, -3.09 56.8, 15.5 43.5 C24.13 32.33, 40.02 25.52, 46.5 14.5 C60.48 3.07, 65.35 -1.44, 77.5 14.5" stroke="none" stroke-width="0" fill="#b2f2bb"></path><path d="M77.5 14.5 C85.21 21.1, 90.58 28.12, 108.43 43.5 M77.5 14.5 C84.7 22.37, 92.08 27.62, 108.43 43.5 M108.43 43.5 C122.96 56.98, 125.45 58.83, 108.43 72.5 M108.43 43.5 C123.2 56.11, 124.14 56.09, 108.43 72.5 M108.43 72.5 C99.1 80.32, 88.6 92.46, 77.5 101.25 M108.43 72.5 C100.03 80.78, 89.38 90.27, 77.5 101.25 M77.5 101.25 C60.58 114.02, 62.37 114.11, 46.5 101.25 M77.5 101.25 C62.95 115.69, 62.51 116.54, 46.5 101.25 M46.5 101.25 C35.52 91.58, 27.32 83.11, 15.5 72.5 M46.5 101.25 C36.82 92.05, 25.97 81.59, 15.5 72.5 M15.5 72.5 C-0.36 56.05, -1.01 58.84, 15.5 43.5 M15.5 72.5 C1.45 57.13, 1.53 58.35, 15.5 43.5 M15.5 43.5 C25.54 36.91, 34.76 26.62, 46.5 14.5 M15.5 43.5 C22.96 35.36, 31.78 28.25, 46.5 14.5 M46.5 14.5 C60.92 0.22, 61.05 -1.07, 77.5 14.5 M46.5 14.5 C61.81 -0.95, 61.99 -0.14, 77.5 14.5" stroke="#000000" stroke-width="2" fill="none"></path></g><g stroke-linecap="round" transform="translate(124.7069686336796 198.80657398869857) rotate(12.51935413014013 61.962890625 57.876953125)"><path d="M77.5 14.5 C81.29 18.55, 95.44 26.06, 108.43 43.5 C123.03 57.98, 124.34 54.76, 108.43 72.5 C98.11 79.87, 89.64 85.03, 77.5 101.25 C64.41 113.28, 64.91 117.53, 46.5 101.25 C33.73 90.62, 27.82 82.68, 15.5 72.5 C1 56.46, -0.48 59.83, 15.5 43.5 C22 36.83, 32.26 23.28, 46.5 14.5 C65 -2.86, 64.85 0.85, 77.5 14.5" stroke="none" stroke-width="0" fill="#b2f2bb"></path><path d="M77.5 14.5 C86.53 25.79, 97.71 36.22, 108.43 43.5 M77.5 14.5 C87.05 23.28, 97.41 33.07, 108.43 43.5 M108.43 43.5 C123.11 56.65, 124.29 58.76, 108.43 72.5 M108.43 43.5 C122.85 59.95, 125.43 57.82, 108.43 72.5 M108.43 72.5 C97.77 82.7, 85.21 96.31, 77.5 101.25 M108.43 72.5 C101.7 78.19, 95.58 84.72, 77.5 101.25 M77.5 101.25 C61.86 115.29, 60.9 117.52, 46.5 101.25 M77.5 101.25 C63.04 116.35, 62.85 116.97, 46.5 101.25 M46.5 101.25 C41.88 96.2, 34.89 89.89, 15.5 72.5 M46.5 101.25 C38.58 92.73, 30.9 86.41, 15.5 72.5 M15.5 72.5 C-0.93 56.72, 1.6 58.16, 15.5 43.5 M15.5 72.5 C1.7 58.12, -0.05 59.4, 15.5 43.5 M15.5 43.5 C25.04 35.12, 31.92 25.88, 46.5 14.5 M15.5 43.5 C26.38 32.24, 38.67 20.74, 46.5 14.5 M46.5 14.5 C60.64 -1.05, 61.26 -0.55, 77.5 14.5 M46.5 14.5 C63.25 0.27, 63.4 -0.15, 77.5 14.5" stroke="#000000" stroke-width="2" fill="none"></path></g><g stroke-linecap="round" transform="translate(42.843687383679594 245.95891773869835) rotate(12.100358795715751 61.962890625 57.876953125)"><path d="M77.5 14.5 C88.64 24.56, 93.89 35.09, 108.43 43.5 C124.49 58.7, 122.92 60.95, 108.43 72.5 C95.46 81.38, 84.17 93.03, 77.5 101.25 C61.27 116, 65.01 118.59, 46.5 101.25 C37.41 95.62, 31.14 88.61, 15.5 72.5 C-2.92 55.38, 2.6 54.55, 15.5 43.5 C20.53 39.04, 34.16 30.8, 46.5 14.5 C62.14 -3.57, 60.37 3.2, 77.5 14.5" stroke="none" stroke-width="0" fill="#ffa94d"></path><path d="M77.5 14.5 C85.98 22.84, 92.72 29.01, 108.43 43.5 M77.5 14.5 C85.92 23.46, 95.46 31.59, 108.43 43.5 M108.43 43.5 C123.63 57.11, 124.98 58.94, 108.43 72.5 M108.43 43.5 C124.36 56.29, 125.19 60.16, 108.43 72.5 M108.43 72.5 C97.85 83.36, 87.5 91.85, 77.5 101.25 M108.43 72.5 C96 83.96, 84.75 95.78, 77.5 101.25 M77.5 101.25 C63.88 117.37, 63.77 116.53, 46.5 101.25 M77.5 101.25 C63.94 114.76, 63.05 114.73, 46.5 101.25 M46.5 101.25 C38.43 92.73, 27.83 82.7, 15.5 72.5 M46.5 101.25 C37.63 92.08, 26.15 83.34, 15.5 72.5 M15.5 72.5 C0.95 59.19, 1.26 59.97, 15.5 43.5 M15.5 72.5 C-1.25 58.99, -0.44 55.86, 15.5 43.5 M15.5 43.5 C26.61 30.52, 40.98 20.1, 46.5 14.5 M15.5 43.5 C22.48 35.62, 30.6 29.16, 46.5 14.5 M46.5 14.5 C61.26 -1.49, 61.62 1.7, 77.5 14.5 M46.5 14.5 C63.67 2.14, 61.24 -1.57, 77.5 14.5" stroke="#1e1e1e" stroke-width="2" fill="none"></path></g><g stroke-linecap="round" transform="translate(20.17521763737534 53.47697054384844) rotate(11.685063164661674 59.090344746304254 57.179212819850136)"><path d="M75 14.5 C81.57 23.54, 91.03 32.21, 103.18 43.5 C118.36 54.47, 114.8 56.55, 103.18 72.5 C92.24 79.55, 87.04 92.25, 75 99.86 C58.85 117.45, 58.55 116.27, 45 99.86 C32.12 91.72, 25.5 79.12, 15 72.5 C3.09 58.43, -2.68 55.31, 15 43.5 C21.9 36.29, 28.7 29.85, 45 14.5 C62.81 -2.5, 60.77 -2.89, 75 14.5" stroke="none" stroke-width="0" fill="#b2f2bb"></path><path d="M75 14.5 C81.9 22.86, 89.65 31.38, 103.18 43.5 M75 14.5 C86.42 24.95, 95.42 35.36, 103.18 43.5 M103.18 43.5 C118.16 59.25, 118.23 56.66, 103.18 72.5 M103.18 43.5 C118.09 56.98, 118.02 57.52, 103.18 72.5 M103.18 72.5 C95.76 76.63, 89.15 82.46, 75 99.86 M103.18 72.5 C97.53 79.06, 90.35 83.22, 75 99.86 M75 99.86 C58.82 115.74, 59.19 115.43, 45 99.86 M75 99.86 C58.09 113.86, 62.24 115.15, 45 99.86 M45 99.86 C32.99 90.03, 24.1 81, 15 72.5 M45 99.86 C38.09 93.37, 31.32 85.66, 15 72.5 M15 72.5 C1.74 59.94, 1.26 58.98, 15 43.5 M15 72.5 C-1.9 59.76, -1.65 57.74, 15 43.5 M15 43.5 C26.42 32.16, 35.98 23.77, 45 14.5 M15 43.5 C26.43 33.17, 37.61 20.12, 45 14.5 M45 14.5 C61.42 0.56, 58.21 -1.01, 75 14.5 M45 14.5 C58.44 1.28, 58.48 1.07, 75 14.5" stroke="#000000" stroke-width="2" fill="none"></path></g><g stroke-linecap="round" transform="translate(97.3593123836796 8.064386488698347) rotate(14.859766226065515 61.962890625 57.876953125)"><path d="M77.5 14.5 C88.86 22.24, 95.88 36.7, 108.43 43.5 C125.48 59.82, 126.63 57.3, 108.43 72.5 C98.84 78.06, 93.88 86.01, 77.5 101.25 C58.59 113.88, 59 112.35, 46.5 101.25 C37.32 93.69, 24.47 83.76, 15.5 72.5 C-3.46 56.73, 2.71 56.22, 15.5 43.5 C28.94 35.56, 33.79 22, 46.5 14.5 C62.52 0.5, 62.6 -1.07, 77.5 14.5" stroke="none" stroke-width="0" fill="#ffd43b"></path><path d="M77.5 14.5 C86.69 23.78, 95 29.06, 108.43 43.5 M77.5 14.5 C87.9 24.78, 100.13 34.87, 108.43 43.5 M108.43 43.5 C123.95 58.41, 125.21 59.14, 108.43 72.5 M108.43 43.5 C123.98 59.26, 125.46 58.13, 108.43 72.5 M108.43 72.5 C96.28 85.08, 84.82 96.21, 77.5 101.25 M108.43 72.5 C98.03 82.86, 86.12 92.86, 77.5 101.25 M77.5 101.25 C60.01 115.78, 60.5 114.73, 46.5 101.25 M77.5 101.25 C62.31 118.03, 59.94 114.37, 46.5 101.25 M46.5 101.25 C37.69 93.96, 30.38 86.08, 15.5 72.5 M46.5 101.25 C38.74 93.89, 31.7 89.21, 15.5 72.5 M15.5 72.5 C-0.54 59.51, 1.58 59.47, 15.5 43.5 M15.5 72.5 C0.82 57.58, -1.01 55.87, 15.5 43.5 M15.5 43.5 C24.6 33.75, 32.94 25.76, 46.5 14.5 M15.5 43.5 C24.82 33.88, 35.79 24.76, 46.5 14.5 M46.5 14.5 C61.77 -0.48, 61.91 -0.93, 77.5 14.5 M46.5 14.5 C63.45 -0.28, 60.78 -1.58, 77.5 14.5" stroke="#000000" stroke-width="2" fill="none"></path></g><g stroke-linecap="round" transform="translate(180.40008421971834 85.3190535805636) rotate(10.571370707848857 35.84008753896131 30.526582908134856)"><path d="M45 7.75 C51.2 11.67, 56.89 21.93, 62.68 23.25 C69.78 28.6, 72.72 30.16, 62.68 38.75 C57.8 43.4, 49.07 47.06, 45 53.3 C36.36 61.93, 32.52 60.78, 27 53.3 C27.07 47.43, 22.42 45.76, 9 38.75 C-2.86 30.62, 1.16 29.54, 9 23.25 C14.76 16.42, 22.26 13.91, 27 7.75 C38.58 1.26, 36.46 -1.21, 45 7.75" stroke="none" stroke-width="0" fill="#b2f2bb"></path><path d="M45 7.75 C51.18 10.28, 54.77 13.08, 62.68 23.25 M45 7.75 C51.69 12.63, 57.03 18.07, 62.68 23.25 M62.68 23.25 C73.37 31.89, 69.76 31.53, 62.68 38.75 M62.68 23.25 C72.86 29.51, 69.75 32.01, 62.68 38.75 M62.68 38.75 C58.78 44.63, 53.69 46.26, 45 53.3 M62.68 38.75 C56.84 43.54, 51.76 48.2, 45 53.3 M45 53.3 C37.65 60.79, 37.26 60.55, 27 53.3 M45 53.3 C37.06 59.95, 38.07 59.55, 27 53.3 M27 53.3 C23.04 49.23, 18.88 46.13, 9 38.75 M27 53.3 C21.73 49.67, 17.29 45.79, 9 38.75 M9 38.75 C-0.66 32.63, 0.52 30.06, 9 23.25 M9 38.75 C-1.1 31.57, -0.06 29.39, 9 23.25 M9 23.25 C14.5 17.5, 20.64 9.69, 27 7.75 M9 23.25 C15.06 17.94, 18.67 14.97, 27 7.75 M27 7.75 C37.93 1.7, 34.3 1.35, 45 7.75 M27 7.75 C36.68 0.77, 36.28 -2.09, 45 7.75" stroke="#000000" stroke-width="2" fill="none"></path></g><g stroke-linecap="round" transform="translate(9.915709219718337 225.21553795556338) rotate(3.9303234243103087 35.84008753896131 30.526582908134856)"><path d="M45 7.75 C49.22 10.74, 55.37 15.66, 62.68 23.25 C68.19 31.08, 71.92 29.76, 62.68 38.75 C58.38 41.64, 50.03 44.07, 45 53.3 C35.57 62.07, 36.92 58.84, 27 53.3 C23 50.74, 18.1 43.95, 9 38.75 C-3.53 30.99, 0.61 27.76, 9 23.25 C16.1 17.83, 21.34 10.78, 27 7.75 C36.94 1.99, 35.66 -3.52, 45 7.75" stroke="none" stroke-width="0" fill="#b2f2bb"></path><path d="M45 7.75 C48.86 12.38, 51.05 12.54, 62.68 23.25 M45 7.75 C49.88 11.44, 54.97 15.12, 62.68 23.25 M62.68 23.25 C72.46 29.08, 72.97 30.81, 62.68 38.75 M62.68 23.25 C70.84 28.96, 69.52 31.38, 62.68 38.75 M62.68 38.75 C55.28 43.89, 50.84 51.83, 45 53.3 M62.68 38.75 C58.03 42.25, 51.51 46.35, 45 53.3 M45 53.3 C34.51 61.03, 36.02 61.67, 27 53.3 M45 53.3 C35.52 59.33, 37.65 60.52, 27 53.3 M27 53.3 C22.61 50.13, 18.29 48.12, 9 38.75 M27 53.3 C19.71 47.05, 13 42.32, 9 38.75 M9 38.75 C1.32 31.94, -0.15 30.19, 9 23.25 M9 38.75 C2.23 30.49, -2.06 32.53, 9 23.25 M9 23.25 C16.12 16.64, 21.21 12.44, 27 7.75 M9 23.25 C13.21 18.9, 18.95 14.42, 27 7.75 M27 7.75 C37.17 -0.42, 37.69 -1.07, 45 7.75 M27 7.75 C36.87 1.21, 36.95 1.29, 45 7.75" stroke="#000000" stroke-width="2" fill="none"></path></g></svg>
